<svg xmlns:dc="http://purl.org/dc/elements/1.1/" xmlns:cc="http://creativecommons.org/ns#" xmlns:rdf="http://www.w3.org/1999/02/22-rdf-syntax-ns#" xmlns:svg="http://www.w3.org/2000/svg" xmlns="http://www.w3.org/2000/svg" xmlns:sodipodi="http://sodipodi.sourceforge.net/DTD/sodipodi-0.dtd" xmlns:inkscape="http://www.inkscape.org/namespaces/inkscape" viewBox="0 0 25 31.25" version="1.1" x="0px" y="0px"><g transform="translate(0,-1027.3622)"><g transform="translate(4.9892878,-4.5000174)" style="" fill="#ffffff"><path style="" d="M 12.5 0 A 12.5 12.5 0 0 0 0 12.5 A 12.5 12.5 0 0 0 12.5 25 A 12.5 12.5 0 0 0 25 12.5 A 12.5 12.5 0 0 0 12.5 0 z M 14.009766 4.9960938 L 19.009766 4.9960938 L 19.009766 8.9960938 L 14.009766 8.9960938 L 14.009766 5.4960938 L 14.009766 4.9960938 z M 5.0097656 5.9960938 L 10.009766 5.9960938 L 10.009766 9.9960938 L 5.0097656 9.9960938 L 5.0097656 6.4960938 L 5.0097656 5.9960938 z M 15.009766 5.9960938 L 15.009766 7.9960938 L 18.009766 7.9960938 L 18.009766 5.9960938 L 15.009766 5.9960938 z M 6.0097656 6.9960938 L 6.0097656 8.9960938 L 9.0097656 8.9960938 L 9.0097656 6.9960938 L 6.0097656 6.9960938 z M 16.009766 9.9960938 L 21.009766 9.9960938 L 21.009766 13.996094 L 16.009766 13.996094 L 16.009766 10.496094 L 16.009766 9.9960938 z M 17.009766 10.996094 L 17.009766 12.996094 L 20.009766 12.996094 L 20.009766 10.996094 L 17.009766 10.996094 z M 10.009766 11.996094 L 15.009766 11.996094 L 15.009766 15.996094 L 10.009766 15.996094 L 10.009766 12.496094 L 10.009766 11.996094 z M 11.009766 12.996094 L 11.009766 14.996094 L 14.009766 14.996094 L 14.009766 12.996094 L 11.009766 12.996094 z M 5.0097656 16.996094 L 10.009766 16.996094 L 10.009766 20.996094 L 5.0097656 20.996094 L 5.0097656 17.496094 L 5.0097656 16.996094 z M 11.009766 16.996094 L 16.009766 16.996094 L 16.009766 20.996094 L 11.009766 20.996094 L 11.009766 17.496094 L 11.009766 16.996094 z M 6.0097656 17.996094 L 6.0097656 19.996094 L 9.0097656 19.996094 L 9.0097656 17.996094 L 6.0097656 17.996094 z M 12.009766 17.996094 L 12.009766 19.996094 L 15.009766 19.996094 L 15.009766 17.996094 L 12.009766 17.996094 z " transform="translate(-4.9892878,1031.8622)" fill="#000000" fill-opacity="1" fill-rule="evenodd" stroke="none"/></g></g><text x="0" y="40" fill="#000000" font-size="5px" font-weight="bold" font-family="'Helvetica Neue', Helvetica, Arial-Unicode, Arial, Sans-serif">Created by Chameleon Design</text><text x="0" y="45" fill="#000000" font-size="5px" font-weight="bold" font-family="'Helvetica Neue', Helvetica, Arial-Unicode, Arial, Sans-serif">from the Noun Project</text></svg>