
		<svg xmlns="http://www.w3.org/2000/svg" xmlns:xlink="http://www.w3.org/1999/xlink" version="1.1" width="3490.909090909091" height="3545.4545454545455">
			
			<g transform="scale(27.272727272727273) translate(10, 10)">
				<defs id="SvgjsDefs3900"/><g id="SvgjsG3901" transform="translate(0.0325927734375, -0.0030975341796875) scale(1)" feature="container" rel="mainfill" name="outline_container" xmlns:name="outlineContainer_mainfill" fill="#6881a9">  <title xmlns="http://www.w3.org/2000/svg">Circle Elements</title>  <g xmlns="http://www.w3.org/2000/svg">    <path d="M556.19,259.29c0.42,0,1.68-.11,1.66-0.39a1,1,0,0,0-1-.32,6.26,6.26,0,0,1-.8-0.06c-0.51-.1-1.4-0.67-1.88-0.25a1.42,1.42,0,0,0,0,.85A7.79,7.79,0,0,0,556.19,259.29Z" transform="translate(-550.69 -204.03)" style="fill: ;fill-rule: evenodd"/>    <path d="M556.8,253.12c-1-.3-2.69-0.6-2.81-0.17s0.31,0.19.52,0.44a1.45,1.45,0,0,0,.27.51,13.44,13.44,0,0,0,2.62.29,0.62,0.62,0,0,0,0-.8A2.14,2.14,0,0,0,556.8,253.12Z" transform="translate(-550.69 -204.03)" style="fill: ;fill-rule: evenodd"/>    <path d="M558,251l0,0a1.68,1.68,0,0,0-.9-0.36,11.27,11.27,0,0,0-1.08-.41c-1.68-.34-1.85.93-0.22,1.15a9.14,9.14,0,0,0,1.82.19C558,251.51,558.14,251.31,558,251Z" transform="translate(-550.69 -204.03)" style="fill: ;fill-rule: evenodd"/>    <path d="M557.49,248.17l-0.41-.08c-0.88-.19-1.79-0.81-2.62-0.94-1-.17-1.64.62-0.5,1.06,0.29,0.11.88,0.07,1.27,0.17,0.93,0.25,3.19,1.28,3.55.55C559,248.45,558.24,248.31,557.49,248.17Z" transform="translate(-550.69 -204.03)" style="fill: ;fill-rule: evenodd"/>    <path d="M555.54,246c0.81,0.24,1.75.31,2.57,0.5s1.4,0.33,1.26-.2a2.48,2.48,0,0,0-1.46-.89,12.09,12.09,0,0,0-1.3-.37,36.64,36.64,0,0,1-3.56-1.17c-0.9-.3-2.06-0.91-2.31-0.5s0.14,0.34.22,0.62a1.2,1.2,0,0,0,.09.63,3,3,0,0,0,1.2.21C553.06,245,554.39,245.63,555.54,246Z" transform="translate(-550.69 -204.03)" style="fill: ;fill-rule: evenodd"/>    <path d="M558.65,232.12a14.5,14.5,0,0,1,2,1.2c0.28,0.21.38,0.45,0.61,0.6a6.6,6.6,0,0,0,.92.35c0.3,0.13.63,0.33,0.94,0.48,0.63,0.31,1.08.54,1.33,0.22s-0.33-.92-1.05-1.39l-0.75-.48c-0.74-.5-2.12-1.34-3.07-2s-1.45-1.37-2-.5S557.42,231.48,558.65,232.12Z" transform="translate(-550.69 -204.03)" style="fill: ;fill-rule: evenodd"/>    <path d="M558.88,241.18l0.68,0.31a3.71,3.71,0,0,0,1.38.41,0.54,0.54,0,0,0,.25-0.61,3.76,3.76,0,0,0-1.56-.66c-0.63-.24-1.28-0.58-1.9-0.86a1.44,1.44,0,0,0-1-.31,0.58,0.58,0,0,0,0,.73A9.13,9.13,0,0,0,558.88,241.18Z" transform="translate(-550.69 -204.03)" style="fill: ;fill-rule: evenodd"/>    <path d="M558.82,237.93c0,0.51,3.44,2.31,3.49,1.51a1.1,1.1,0,0,0-.52-0.7C560.84,238,558.89,237.15,558.82,237.93Z" transform="translate(-550.69 -204.03)" style="fill: ;fill-rule: evenodd"/>    <path d="M563.41,237.32a1.06,1.06,0,0,0-.5-0.61,2.21,2.21,0,0,0-.33-0.46,5.14,5.14,0,0,0-.44-0.31,5.55,5.55,0,0,0-.5-0.37c-0.77-.44-2.28-1.23-2.5-1s0.08,0.39.13,0.56a1.32,1.32,0,0,0,.14.56,9.7,9.7,0,0,0,1.26.48,17.13,17.13,0,0,0,2,1.16C563,237.49,563.3,237.53,563.41,237.32Z" transform="translate(-550.69 -204.03)" style="fill: ;fill-rule: evenodd"/>    <path d="M555.76,242.46a1,1,0,0,0,0,.63,14.62,14.62,0,0,0,1.78.7c0.42,0.16.85,0.17,1.27,0.31a3.23,3.23,0,0,0,1.14.29c0.29,0,.22-0.39.21-0.56s-0.28-.37-0.7-0.59c-0.16-.08-0.33-0.16-0.5-0.23-0.39-.17-0.81-0.32-1.2-0.5a6.93,6.93,0,0,0-1.39-.63,1.79,1.79,0,0,0-.75,0C555.31,242.23,555.71,242.12,555.76,242.46Z" transform="translate(-550.69 -204.03)" style="fill: ;fill-rule: evenodd"/>    <path d="M561.93,230.61c0.41,0.27.81,0.57,1.2,0.86l0.63,0.48a7.86,7.86,0,0,0,.72.56,5.62,5.62,0,0,0,.82.34,0.82,0.82,0,0,0,.66.12c0.19-.14-0.22-0.58-0.49-0.84l0,0c-0.35-.33-0.76-0.57-1.13-0.88s-0.6-.55-0.93-0.79c-0.94-.65-2.12-1.59-2.42-1.08S561.38,230.25,561.93,230.61Z" transform="translate(-550.69 -204.03)" style="fill: ;fill-rule: evenodd"/>    <path d="M566.36,229.65l-0.07-.05c-0.23-.18-0.41-0.38-0.64-0.55-0.87-.66-2.4-2-2.68-1.73s0.76,1.24,1.53,1.77c0.51,0.36,1.06.73,1.58,1.06,0.29,0.18.57,0.34,0.86,0.5s0.31,0.21.42,0.11-0.05-.3-0.31-0.54A7.45,7.45,0,0,0,566.36,229.65Z" transform="translate(-550.69 -204.03)" style="fill: ;fill-rule: evenodd"/>    <path d="M563.38,220.81c0.8,0.75,1.55,1.81,2.64,2.76s1.78,1.75,2.53,2.41a6.89,6.89,0,0,0,.95.59l0,0a1.76,1.76,0,0,0,.41.18,0.54,0.54,0,0,0,.32,0c0.2-.1-0.18-0.39-0.28-0.61a1.21,1.21,0,0,0-.11-0.34,5.45,5.45,0,0,0-.43-0.49l-0.39-.48c-0.3-.35-0.58-0.72-0.9-1.06-1.44-1.52-2.72-2.47-4-3.77a9.8,9.8,0,0,0-1.19-1.33,1.66,1.66,0,0,0-1,.36,0.27,0.27,0,0,0-.25.27A9.61,9.61,0,0,0,563.38,220.81Z" transform="translate(-550.69 -204.03)" style="fill: ;fill-rule: evenodd"/>    <path d="M568.87,222.12c0.29,0.32.52,0.72,0.77,1,0.54,0.67,1.85,2,2.35,1.8a0.28,0.28,0,0,0,.14-0.14,0.81,0.81,0,0,0-.17-0.74c-0.16-.22-0.37-0.41-0.54-0.62s-0.22-.33-0.37-0.5c-0.3-.35-1.09-1.16-1.55-1.6s-1.29-1.65-1.6-1.55-0.17,1.08-.08,1.22A12.73,12.73,0,0,0,568.87,222.12Z" transform="translate(-550.69 -204.03)" style="fill: ;fill-rule: evenodd"/>    <path d="M571.21,220.84c0.33,0.36.64,0.76,0.94,1.14,0.16,0.21.33,0.4,0.49,0.6a3,3,0,0,0,.72.8,0.23,0.23,0,0,0,.38-0.14,1.69,1.69,0,0,0-.28-1.05c-0.11-.2-0.25-0.38-0.36-0.58a5.8,5.8,0,0,0-.3-0.63,13.76,13.76,0,0,0-1.38-1.83,1.27,1.27,0,0,0-1.25.57C570.13,220,570.85,220.45,571.21,220.84Z" transform="translate(-550.69 -204.03)" style="fill: ;fill-rule: evenodd"/>    <path d="M574.32,220.35a7.76,7.76,0,0,0,.65.81,4.06,4.06,0,0,0,.47.43,0.79,0.79,0,0,0,.41.11c0.15,0,.06-0.37-0.07-0.59l-0.12-.21-0.38-.7c-0.11-.2-0.25-0.36-0.38-0.55-0.23-.35-0.43-0.7-0.65-1.05-0.39-.63-0.89-1.23-1.2-0.81a3.46,3.46,0,0,0,.54,1.59A10.19,10.19,0,0,0,574.32,220.35Z" transform="translate(-550.69 -204.03)" style="fill: ;fill-rule: evenodd"/>    <path d="M576.68,219.22a2.69,2.69,0,0,0,.79,1.06,0.47,0.47,0,0,0,.48-0.2,0.83,0.83,0,0,0,0-.95,2.12,2.12,0,0,0-.14-0.2l-0.15-.2a3.72,3.72,0,0,1-.5-0.91,6.52,6.52,0,0,0-.54-0.9,3.67,3.67,0,0,0-1-1.24,0.7,0.7,0,0,0-.59.4c-0.12.37,0.53,1.12,0.94,1.83C576.13,218.35,576.43,218.79,576.68,219.22Z" transform="translate(-550.69 -204.03)" style="fill: ;fill-rule: evenodd"/>    <path d="M577.87,216.22a11.33,11.33,0,0,0,.81,1.19,7.84,7.84,0,0,0,.91,1.22c0.2,0.18.25,0.16,0.34,0.05a0.47,0.47,0,0,0,.15-0.52A1.49,1.49,0,0,0,580,218a11.68,11.68,0,0,0-.91-1.54c-0.5-.87-1.11-2-1.59-3a3.22,3.22,0,0,0-.86-1.34c-0.52,0-.37.92-0.27,1.21A17.51,17.51,0,0,0,577.87,216.22Z" transform="translate(-550.69 -204.03)" style="fill: ;fill-rule: evenodd"/>    <path d="M579.09,212.48a16.71,16.71,0,0,0,.64,1.61c0.25,0.46.57,0.87,0.86,1.29a9.68,9.68,0,0,0,.62.89,1.25,1.25,0,0,0,.39.29,0.23,0.23,0,0,0,.23,0c0.13-.07.09-0.21,0.05-0.44a3.45,3.45,0,0,0-.06-0.68A37,37,0,0,0,580,212c-0.39-.74-0.83-2.17-1.38-2a1.12,1.12,0,0,0-.24,1.14C578.47,211.52,578.9,212.06,579.09,212.48Z" transform="translate(-550.69 -204.03)" style="fill: ;fill-rule: evenodd"/>    <path d="M582.92,214.14l0.47,0.89c0.23,0.42.56,1.11,0.86,1l0.06,0a0.62,0.62,0,0,0,.19-0.34,2.24,2.24,0,0,0-.3-0.88c-0.13-.29-0.24-0.58-0.35-0.88a7.17,7.17,0,0,0-.7-1.75,1.85,1.85,0,0,0-1.16-.65c-0.4.22,0.34,1.32,0.53,1.86A6.82,6.82,0,0,0,582.92,214.14Z" transform="translate(-550.69 -204.03)" style="fill: ;fill-rule: evenodd"/>    <path d="M586.63,215.35c0.28,0,.27-0.49.17-1a6.32,6.32,0,0,0-.17-0.66c-0.12-.38-0.24-0.75-0.34-1.13a10.25,10.25,0,0,0-.32-1.14c-0.28-.72-1-2.83-1.59-2.65s-0.17,1.47.07,2.24,0.74,1.83,1,2.42a6.26,6.26,0,0,0,.93,1.68C586.48,215.29,586.51,215.36,586.63,215.35Z" transform="translate(-550.69 -204.03)" style="fill: ;fill-rule: evenodd"/>    <path d="M588.43,213.61a2,2,0,0,0,.5,1,0.17,0.17,0,0,0,.16-0.08,0.84,0.84,0,0,0,.17-0.3,2.32,2.32,0,0,0-.13-1c-0.1-.35-0.15-0.72-0.25-1.06-0.27-.9-0.8-3.17-1.25-3.2-1-.07.11,2.33,0.36,3.17Z" transform="translate(-550.69 -204.03)" style="fill: ;fill-rule: evenodd"/>    <path d="M594.14,213.84c0.27,0,.14-0.75.08-1.18v0c-0.06-.46-0.14-0.93-0.22-1.39s0-.84-0.1-1.27c-0.13-.7-0.41-2.19-0.77-2.24-0.87-.12-0.33.94-0.17,1.93,0.06,0.36,0,.65.07,1a12.44,12.44,0,0,0,.82,2.84C593.95,213.71,594,213.84,594.14,213.84Z" transform="translate(-550.69 -204.03)" style="fill: ;fill-rule: evenodd"/>    <path d="M596.91,212.62v0a13.91,13.91,0,0,0-.2-2c-0.08-.56-0.11-1.15-0.21-1.71-0.16-.84-0.52-2.14-0.6-3s0-1.51-.79-1.22,0.39,4,.51,5.08c0.08,0.6.09,1.21,0.21,1.81a2.55,2.55,0,0,0,.35.89,3.94,3.94,0,0,1,.25.43c0,0.05.07,0.19,0.09,0.22C596.73,213.39,596.89,212.94,596.91,212.62Z" transform="translate(-550.69 -204.03)" style="fill: ;fill-rule: evenodd"/>    <path d="M599,211.9h0c0.5,0.06.35-.92,0.27-1.62s-0.21-1.53-.35-2.26c-0.19-1-.36-4.11-1.26-3.31-0.3.27,0.35,2.83,0.54,3.84,0.09,0.48.2,0.95,0.26,1.43a6.73,6.73,0,0,0,.24,1.51A0.57,0.57,0,0,0,599,211.9Z" transform="translate(-550.69 -204.03)" style="fill: ;fill-rule: evenodd"/>    <path d="M602,210.62c0-.26-0.1-0.54-0.14-0.79l-0.12-.76c-0.12-.89.09-2.63-0.6-2.51-0.44.08-.38,1.4-0.28,2.38,0,0.46.22,0.87,0.27,1.33a4,4,0,0,0,.21,1.37,0.46,0.46,0,0,0,.4.23,0.69,0.69,0,0,0,.29-0.63,4.89,4.89,0,0,0,0-.51v-0.11Z" transform="translate(-550.69 -204.03)" style="fill: ;fill-rule: evenodd"/>    <path d="M604.54,210.59l0-1.16c0-.73.1-1.9-0.62-1.65a0.52,0.52,0,0,0-.31.53,10.18,10.18,0,0,0,0,1.24c0,0.33.07,0.67,0.09,1a2,2,0,0,0,.11,1.15,0.36,0.36,0,0,0,.39.09,0.54,0.54,0,0,0,.25-0.14,2.12,2.12,0,0,0,.08-1v0Z" transform="translate(-550.69 -204.03)" style="fill: ;fill-rule: evenodd"/>    <path d="M606.77,206.29c-0.68.05-.34,1.74-0.31,2.54a7.16,7.16,0,0,1-.05,1.23,5.36,5.36,0,0,0-.12,1.39c0,0.32.07,0.42,0.22,0.45s0.33-.34.38-0.78c0-.18,0-0.36.06-0.53l0-.1c0.05-.25.17-0.48,0.2-0.74a20.46,20.46,0,0,0-.05-2.36C607.12,206.75,607.33,206.25,606.77,206.29Z" transform="translate(-550.69 -204.03)" style="fill: ;fill-rule: evenodd"/>    <path d="M609.87,209.18c0-1.07.94-4.86,0.1-5.1s-0.7.48-.71,1.28-0.27,2.18-.36,3c-0.06.5,0,1-.06,1.52l0,0.73a3.52,3.52,0,0,0,0,.86c0.07,0.35.24,0.37,0.41,0.32a0.61,0.61,0,0,0,.47-0.07l0-.08a4.12,4.12,0,0,0,.15-1.19C609.88,210,609.86,209.62,609.87,209.18Z" transform="translate(-550.69 -204.03)" style="fill: ;fill-rule: evenodd"/>    <path d="M612.55,208.88c0.08-1,.54-2.1-0.34-1.92-0.37.08-.53,1.59-0.6,2.29,0,0.28,0,.47,0,0.72s-0.08.6-.11,0.89a6,6,0,0,1-.09.62,3.28,3.28,0,0,0-.1.52,1,1,0,0,0,.16.74c0.26,0.27.46-.14,0.6-0.64l0-.14c0.07-.3.12-0.61,0.19-0.91a7.43,7.43,0,0,0,.24-1.22C612.59,209.53,612.52,209.24,612.55,208.88Z" transform="translate(-550.69 -204.03)" style="fill: ;fill-rule: evenodd"/>    <path d="M615.38,208.81a0.55,0.55,0,0,0-.7-0.47,2,2,0,0,0-.45,1.4c0,0.33-.05.65-0.1,1a10.35,10.35,0,0,1-.24,1.05l0,0.12a6.92,6.92,0,0,0-.08,1,0.44,0.44,0,0,0,0,.28,0.29,0.29,0,0,0,.29.12,1.82,1.82,0,0,0,.8-1.33,20.1,20.1,0,0,0,.29-2.23A3.67,3.67,0,0,0,615.38,208.81Z" transform="translate(-550.69 -204.03)" style="fill: ;fill-rule: evenodd"/>    <path d="M617.73,210.76a10.78,10.78,0,0,0,.49-2.31c0-.48-0.17-0.7-0.46-0.66-0.46.07-.8,2.37-1,3.29,0,0.15,0,.3,0,0.45s-0.06.29-.09,0.43a1.76,1.76,0,0,0,0,.75,0.37,0.37,0,0,0,.14.26c0.27,0.1.5-.31,0.67-0.83S617.61,211.24,617.73,210.76Z" transform="translate(-550.69 -204.03)" style="fill: ;fill-rule: evenodd"/>    <path d="M620.37,212.06c0.18-.61.62-1.86,0.77-2.49,0.18-.79.6-2.09-0.12-2.25s-1.17,2-1.39,2.77a12.62,12.62,0,0,0-.25,1.29c0,0.23-.09.46-0.14,0.7,0,0.06,0,.12,0,0.18s0,0.27-.06.41c-0.11.51-.54,1.68-0.16,1.76a1.43,1.43,0,0,0,.71-0.82c0.13-.25.23-0.54,0.36-0.79A3.87,3.87,0,0,0,620.37,212.06Z" transform="translate(-550.69 -204.03)" style="fill: ;fill-rule: evenodd"/>    <path d="M623.23,211.74c0.15-.55.8-1.7,0.37-1.9a1.86,1.86,0,0,0-1.12.74,6.43,6.43,0,0,0-.52,1.64c-0.08.29-.16,0.59-0.25,0.88,0,0.12-.1.28-0.15,0.43a1.32,1.32,0,0,0-.09.45,0.27,0.27,0,0,0,.23.21,0.33,0.33,0,0,0,.36.08,2.66,2.66,0,0,0,.61-1.21A13.4,13.4,0,0,0,623.23,211.74Z" transform="translate(-550.69 -204.03)" style="fill: ;fill-rule: evenodd"/>    <path d="M624.31,214.84a0.2,0.2,0,0,0,.27,0,0.6,0.6,0,0,0,.12-0.13,4.85,4.85,0,0,0,.25-0.46l0.35-.61c0.26-.46.57-0.92,0.79-1.42a17.08,17.08,0,0,0,.5-1.66c0.15-.44.54-1,0.63-1.39a1.14,1.14,0,0,0-.35-1.13c-0.58-.13-0.89,1.34-1.22,2.1a35.47,35.47,0,0,0-1.57,3.55,2.23,2.23,0,0,0,0,.63A0.63,0.63,0,0,0,624.31,214.84Z" transform="translate(-550.69 -204.03)" style="fill: ;fill-rule: evenodd"/>    <path d="M628.62,216.8c-0.19.58-.44,1.47,0.17,1.15a1.41,1.41,0,0,0,.41-0.34,8.36,8.36,0,0,0,1-1.83c0.35-.74.94-1.54,0.79-1.9a0.74,0.74,0,0,0-.64-0.37,8.9,8.9,0,0,0-1.53,2.5A7.85,7.85,0,0,0,628.62,216.8Z" transform="translate(-550.69 -204.03)" style="fill: ;fill-rule: evenodd"/>    <path d="M632.25,221.24c0.06,0.19.36,0.2,0.6,0.07a4.62,4.62,0,0,0,1.23-1.5c0.33-.5.66-1,1-1.5s1-.89,1-1.19a1.32,1.32,0,0,0-1.32-.49,13,13,0,0,0-1.23,1.93c-0.15.27-.22,0.59-0.36,0.87l-0.06.13a4.68,4.68,0,0,1-.49.82A1.16,1.16,0,0,0,632.25,221.24Z" transform="translate(-550.69 -204.03)" style="fill: ;fill-rule: evenodd"/>    <path d="M634.64,222.29l0.08,0a0.66,0.66,0,0,0,.64-0.08,3.21,3.21,0,0,0,.74-0.82c0.23-.33.51-0.62,0.74-0.95s0.42-.74.68-1.09a12.64,12.64,0,0,0,1-1.18c0.07-.15.15-1.15-0.2-1.22s-1,1.14-1.47,1.67-1.15,1.34-1.42,1.71C635,220.94,634.23,222.08,634.64,222.29Z" transform="translate(-550.69 -204.03)" style="fill: ;fill-rule: evenodd"/>    <path d="M636,224a0.2,0.2,0,0,0,.23.2,1.37,1.37,0,0,0,.87.19,10.78,10.78,0,0,0,1.13-1.38c1.16-1.37,2.39-2.39,3.75-4,0.31-.37.57-0.77,0.84-1.15l0.5-.69,0.19-.28a7.84,7.84,0,0,0,.45-1c0.18-.42-0.16-0.47-0.5-0.29a5.77,5.77,0,0,0-.83.62,29.08,29.08,0,0,0-2.84,3.11c-1,1.06-1.63,2.19-2.36,3A11.58,11.58,0,0,0,636,224Z" transform="translate(-550.69 -204.03)" style="fill: ;fill-rule: evenodd"/>    <path d="M643.79,221.1a1,1,0,0,0-.62-0.8c-0.58-.07-1.34,1.24-1.56,1.5-0.54.66-1.19,1.29-1.8,1.9-0.3.3-.79,0.69-1.1,1.05a0.64,0.64,0,0,0-.23.74c0.15,0.21.61,0,1-.34,0.19-.19.35-0.37,0.57-0.55l0.69-.56c0.29-.24.56-0.33,0.84-0.59S643.76,221.24,643.79,221.1Z" transform="translate(-550.69 -204.03)" style="fill: ;fill-rule: evenodd"/>    <path d="M643,227.91c-0.21.18-.43,0.35-0.63,0.55l0,0c-0.1.1-.19,0.22-0.3,0.32s-0.17.13-.23,0.19a0.31,0.31,0,0,0,0,.38c0.45,0.82,2.59-1.41,3.39-2,0.52-.4,1.14-1,0.88-1.35s-1.46.53-2.34,1.26C643.44,227.46,643.25,227.71,643,227.91Z" transform="translate(-550.69 -204.03)" style="fill: ;fill-rule: evenodd"/>    <path d="M644.79,229.71c-0.29.27-.59,0.51-0.88,0.76a7.07,7.07,0,0,0-.64.62,0.68,0.68,0,0,0-.24.63c0.05,0.29.5,0.15,0.94-.07,0.23-.11.45-0.25,0.67-0.34a3.46,3.46,0,0,0,.83-0.45,14.23,14.23,0,0,0,1.5-1.18,1,1,0,0,0-.2-0.61c-0.06-.34.36-0.36,0-0.6a1.78,1.78,0,0,0-.73.19A7.39,7.39,0,0,0,644.79,229.71Z" transform="translate(-550.69 -204.03)" style="fill: ;fill-rule: evenodd"/>    <path d="M645.77,232.23a1.1,1.1,0,0,0-.18.16l-0.14.17a6.68,6.68,0,0,1-.57.48,3,3,0,0,0-.42.46c-0.2.26-.22,0.47,0,0.52a2.86,2.86,0,0,0,1.66-.69l0.85-.6a7.08,7.08,0,0,0,1-.54,1.39,1.39,0,0,0,.09-0.58c0-.18.3-0.37,0.08-0.58s-1.18.41-1.51,0.61S646.05,232,645.77,232.23Z" transform="translate(-550.69 -204.03)" style="fill: ;fill-rule: evenodd"/>    <path d="M647.63,234.25a3.07,3.07,0,0,0-.89.57c-0.22.19-.53,0.35-0.77,0.53l-0.1.07c-0.42.33-.74,0.69-0.45,0.87a1.53,1.53,0,0,0,1.18-.23c0.54-.24,1-0.64,1.5-0.92a1,1,0,0,0,.71-0.76A1,1,0,0,0,647.63,234.25Z" transform="translate(-550.69 -204.03)" style="fill: ;fill-rule: evenodd"/>    <path d="M646.77,238.13c0.06,0.2.39,0.13,0.76,0s0.76-.35,1-0.46c0.75-.37,2.05-0.55,2.55-1.17a0.6,0.6,0,0,0,0-.74,1.41,1.41,0,0,0-1,.39c-0.7.38-1.37,0.77-2.09,1.11C647.53,237.43,646.68,237.83,646.77,238.13Z" transform="translate(-550.69 -204.03)" style="fill: ;fill-rule: evenodd"/>    <path d="M649,239.47c-1,.39-1.34.37-1,1.07s0.71,0.26,1.61-.2,2-.92,2.65-1.21c0.26-.12.5-0.27,0.75-0.39a2.84,2.84,0,0,0,.73-0.51c0.18-.19,0-0.31-0.1-0.42a1.18,1.18,0,0,0-1,.07c-0.28.06-.55,0.22-0.83,0.29a2.44,2.44,0,0,0-.62.13c-0.19.1-.29,0.29-0.53,0.43A11.83,11.83,0,0,1,649,239.47Z" transform="translate(-550.69 -204.03)" style="fill: ;fill-rule: evenodd"/>    <path d="M650.55,241.69a3.26,3.26,0,0,0-1.17.34,1.07,1.07,0,0,0-.05.57c-0.07.25-.35,0.35-0.2,0.56s1.39-.3,2.27-0.65c1.24-.49,2.42-1.08,3.49-1.38a11.21,11.21,0,0,0,2.19-.92c0.42-.23.55-0.49,0.33-0.71a1.41,1.41,0,0,0-1.15-.07c-0.48.1-1,.27-1.33,0.38a12.36,12.36,0,0,0-1.21.36C652.6,240.65,651.34,241.41,650.55,241.69Z" transform="translate(-550.69 -204.03)" style="fill: ;fill-rule: evenodd"/>    <path d="M650.62,247.72a2.55,2.55,0,0,0,.44,0,4.67,4.67,0,0,0,1.2-.25,4.41,4.41,0,0,1,.86-0.18c0.51-.07,1.05-0.16,1-0.5a0.88,0.88,0,0,0-.94-0.33,8,8,0,0,0-1.94.55,2.77,2.77,0,0,0-.92.4C650.18,247.6,650.36,247.69,650.62,247.72Z" transform="translate(-550.69 -204.03)" style="fill: ;fill-rule: evenodd"/>    <path d="M655.27,251.53a1.35,1.35,0,0,0-1.09-.08c-0.53.1-1,.19-1.56,0.27a10.44,10.44,0,0,0-1.42.3c-0.26.07-.39,0.12-0.41,0.26a0.4,0.4,0,0,0,.18.39,2,2,0,0,0,1.21.12l0.4-.05a5.78,5.78,0,0,1,.91-0.1,3.65,3.65,0,0,0,1,0A1.3,1.3,0,0,0,655.27,251.53Z" transform="translate(-550.69 -204.03)" style="fill: ;fill-rule: evenodd"/>    <path d="M653.2,255.33c0.37,0,.72,0,1.09-0.06a2.2,2.2,0,0,0,.8-0.12,0.21,0.21,0,0,0,.13-0.31,0.32,0.32,0,0,1-.08-0.25,0.36,0.36,0,0,0-.09-0.29,0.67,0.67,0,0,0-.58-0.08c-0.28.06-.54,0.07-0.83,0.12s-0.7.19-1.07,0.26-0.56,0-.8.08a0.74,0.74,0,0,0-.35.21c-0.18.16-.21,0.31,0,0.44a1.35,1.35,0,0,0,.67.12C652.46,255.44,652.85,255.36,653.2,255.33Z" transform="translate(-550.69 -204.03)" style="fill: ;fill-rule: evenodd"/>    <path d="M655.43,256.95c-0.41,0-.82,0-1.23,0-0.2,0-.36,0-0.56,0s-0.41,0-.62,0a4.76,4.76,0,0,0-.87.13l-0.16,0c-0.49.17-.37,0.4,0.12,0.52s0.85,0.14,1.24.2a5,5,0,0,0,1.08.05c0.33,0,.63-0.12,1-0.17a12.49,12.49,0,0,1,1.85.23c0.25,0,1.09-.47.86-0.89s-0.46-.08-1-0.07S656,257,655.43,256.95Z" transform="translate(-550.69 -204.03)" style="fill: ;fill-rule: evenodd"/>    <path d="M652.27,250.29h0.18c0.28,0,.53-0.08.81-0.12a1.83,1.83,0,0,0,.84-0.2,1.44,1.44,0,0,0,.22-0.54c0.2-.28.61-0.16,0.49-0.49s-0.77-.19-1.25-0.06l-0.89.24c-0.45.12-.93,0.18-1.37,0.34s-0.55.49-.3,0.67A2.31,2.31,0,0,0,652.27,250.29Z" transform="translate(-550.69 -204.03)" style="fill: ;fill-rule: evenodd"/>    <path d="M653.87,243.18a2.77,2.77,0,0,0-.52.25l-0.89.47a23.67,23.67,0,0,1-2.22.95c-0.4.15-.73,0.33-0.62,0.55a0.82,0.82,0,0,0,.9.12,22.24,22.24,0,0,0,2.71-1c0.37-.13,1-0.13,1.25-0.26C655.56,243.69,654.87,242.93,653.87,243.18Z" transform="translate(-550.69 -204.03)" style="fill: ;fill-rule: evenodd"/>    <path d="M641.15,227.07c0.21-.16.38-0.36,0.59-0.53l0.7-.55c0.73-.6,1.7-1.62,1.38-1.9s-1.23.72-1.54,1l-0.94.87a2.82,2.82,0,0,0-.38.48c-0.06.08-.15,0.18-0.25,0.28-0.24.26-.49,0.54-0.33,0.67A1,1,0,0,0,641.15,227.07Z" transform="translate(-550.69 -204.03)" style="fill: ;fill-rule: evenodd"/>    <path d="M630.8,219.14a1.73,1.73,0,0,1,.2-0.1,0.41,0.41,0,0,0,.39-0.2l0.18-.25,0.25-.36a7.84,7.84,0,0,0,.82-1.25,3.38,3.38,0,0,0,.41-1.63c-0.37-.41-0.83.28-1.18,1-0.19.37-.36,0.75-0.57,1.12a5.08,5.08,0,0,0-.71,1.41C630.56,219.09,630.59,219.21,630.8,219.14Z" transform="translate(-550.69 -204.03)" style="fill: ;fill-rule: evenodd"/>    <path d="M626.29,215.84a0.73,0.73,0,0,0,0,.13,0.41,0.41,0,0,0,.25.29,0.81,0.81,0,0,0,.77-0.59c0.25-.47.58-0.94,0.8-1.44a17.22,17.22,0,0,0,1.24-3c0.07-.3.14-1.26-0.39-1.19a3.14,3.14,0,0,0-.75,1.4c-0.4,1-.91,2.19-1.34,3.1A5.47,5.47,0,0,0,626.29,215.84Z" transform="translate(-550.69 -204.03)" style="fill: ;fill-rule: evenodd"/>    <path d="M591.24,213.92a0.49,0.49,0,0,0,.43.32c0.23,0,.42,0,0.34-0.54,0-.1,0-0.2-0.05-0.3-0.09-.44-0.23-0.89-0.35-1.32s-0.16-.7-0.22-1.06-0.22-1.6-.62-1.73a0.54,0.54,0,0,0-.64.52,3.71,3.71,0,0,0,.27.91A10.88,10.88,0,0,0,591.24,213.92Z" transform="translate(-550.69 -204.03)" style="fill: ;fill-rule: evenodd"/>    <path d="M568.15,228.44a0.9,0.9,0,0,0,.52.24c0.15,0,.13-0.24,0-0.44a2.7,2.7,0,0,0-.46-0.52l-0.12-.11c-1-.93-2.16-1.77-3.13-2.76-0.24-.24-1.11-1.48-1.67-1.37a0.93,0.93,0,0,0-.53.83c0,0.13,2,1.83,2.42,2.16s0.58,0.31.88,0.53l0.76,0.53c0.25,0.18.47,0.39,0.73,0.56S567.94,228.32,568.15,228.44Z" transform="translate(-550.69 -204.03)" style="fill: ;fill-rule: evenodd"/>    <path d="M554.34,256.57a1.87,1.87,0,0,0,1.07,0c0.46,0,1.12.16,1.57,0.08s0.68-.46.27-0.7a3.78,3.78,0,0,0-.82-0.25c-1-.22-2.47-0.41-2.7-0.07A1.05,1.05,0,0,0,554.34,256.57Z" transform="translate(-550.69 -204.03)" style="fill: ;fill-rule: evenodd"/>    <path d="M653.26,259.48c-0.43,0-1.68.1-1.66,0.38a1,1,0,0,0,1,.33,6.3,6.3,0,0,1,.8.06c0.51,0.1,1.4.68,1.88,0.25a1.41,1.41,0,0,0,0-.85A7.79,7.79,0,0,0,653.26,259.48Z" transform="translate(-550.69 -204.03)" style="fill: ;fill-rule: evenodd"/>    <path d="M655.44,265.82c0.1-.33-0.31-0.19-0.52-0.44a1.42,1.42,0,0,0-.26-0.51,13.52,13.52,0,0,0-2.62-.3,0.62,0.62,0,0,0,0,.8,2.11,2.11,0,0,0,.63.27C653.6,265.94,655.31,266.25,655.44,265.82Z" transform="translate(-550.69 -204.03)" style="fill: ;fill-rule: evenodd"/>    <path d="M653.69,267.38a9.11,9.11,0,0,0-1.82-.2c-0.45.06-.59,0.26-0.41,0.53l0,0a1.68,1.68,0,0,0,.9.36,11.28,11.28,0,0,0,1.08.41C655.15,268.87,655.32,267.61,653.69,267.38Z" transform="translate(-550.69 -204.03)" style="fill: ;fill-rule: evenodd"/>    <path d="M651.92,270.59l0.41,0.08c0.88,0.2,1.79.81,2.62,1,1,0.17,1.64-.61.51-1.06-0.29-.11-0.88-0.07-1.27-0.17-0.93-.26-3.18-1.29-3.55-0.56C650.4,270.3,651.17,270.44,651.92,270.59Z" transform="translate(-550.69 -204.03)" style="fill: ;fill-rule: evenodd"/>    <path d="M658.43,274.83a1.19,1.19,0,0,0-.08-0.63,3,3,0,0,0-1.2-.21c-0.81-.21-2.14-0.85-3.3-1.2-0.81-.25-1.74-0.32-2.57-0.51s-1.39-.34-1.26.19a2.49,2.49,0,0,0,1.46.9,12.25,12.25,0,0,0,1.3.38,36.62,36.62,0,0,1,3.56,1.19c0.9,0.31,2.06.92,2.31,0.51S658.51,275.11,658.43,274.83Z" transform="translate(-550.69 -204.03)" style="fill: ;fill-rule: evenodd"/>    <path d="M650.7,286.63a14.39,14.39,0,0,1-2-1.2c-0.28-.21-0.38-0.45-0.6-0.6a6.74,6.74,0,0,0-.92-0.35c-0.3-.13-0.63-0.34-0.94-0.49-0.62-.31-1.08-0.54-1.33-0.23s0.33,0.92,1,1.4l0.75,0.49c0.74,0.5,2.12,1.35,3.06,2.06s1.44,1.37,2,.51S651.92,287.27,650.7,286.63Z" transform="translate(-550.69 -204.03)" style="fill: ;fill-rule: evenodd"/>    <path d="M650.5,277.57l-0.68-.31a3.7,3.7,0,0,0-1.38-.42,0.54,0.54,0,0,0-.25.61,3.76,3.76,0,0,0,1.56.67c0.63,0.24,1.28.58,1.9,0.87a1.44,1.44,0,0,0,1,.32,0.57,0.57,0,0,0,0-.73A9.16,9.16,0,0,0,650.5,277.57Z" transform="translate(-550.69 -204.03)" style="fill: ;fill-rule: evenodd"/>    <path d="M650.55,280.82c0-.51-3.42-2.32-3.49-1.52a1.1,1.1,0,0,0,.52.7C648.53,280.77,650.48,281.6,650.55,280.82Z" transform="translate(-550.69 -204.03)" style="fill: ;fill-rule: evenodd"/>    <path d="M648.68,282.57a17.28,17.28,0,0,0-2-1.17c-0.36-.15-0.65-0.19-0.76,0a1.06,1.06,0,0,0,.5.61,2.14,2.14,0,0,0,.32.46,4.84,4.84,0,0,0,.44.31,5.52,5.52,0,0,0,.49.37c0.77,0.44,2.27,1.24,2.49,1s-0.07-.39-0.13-0.56a1.35,1.35,0,0,0-.13-0.56A9.66,9.66,0,0,0,648.68,282.57Z" transform="translate(-550.69 -204.03)" style="fill: ;fill-rule: evenodd"/>    <path d="M653.63,276.3a1,1,0,0,0,0-.63,14.68,14.68,0,0,0-1.78-.7c-0.42-.17-0.85-0.18-1.27-0.32a3.22,3.22,0,0,0-1.14-.29c-0.29,0-.22.39-0.22,0.55s0.28,0.37.7,0.59l0.49,0.23c0.39,0.17.81,0.32,1.19,0.51a7,7,0,0,0,1.39.63,1.78,1.78,0,0,0,.75,0C654.08,276.54,653.67,276.64,653.63,276.3Z" transform="translate(-550.69 -204.03)" style="fill: ;fill-rule: evenodd"/>    <path d="M647.41,288.13c-0.41-.27-0.81-0.57-1.2-0.87l-0.62-.48a8,8,0,0,0-.72-0.56,5.69,5.69,0,0,0-.82-0.34,0.81,0.81,0,0,0-.66-0.13c-0.19.14,0.22,0.58,0.49,0.85l0,0c0.35,0.33.76,0.58,1.13,0.89s0.6,0.55.93,0.79c0.93,0.66,2.11,1.59,2.42,1.09S648,288.49,647.41,288.13Z" transform="translate(-550.69 -204.03)" style="fill: ;fill-rule: evenodd"/>    <path d="M644.84,289.65c-0.51-.36-1.06-0.74-1.58-1.07-0.28-.18-0.57-0.34-0.85-0.5s-0.31-.21-0.42-0.11,0.05,0.3.31,0.55a8,8,0,0,0,.68.56l0.07,0.05c0.23,0.18.41,0.38,0.64,0.56,0.87,0.66,2.4,2,2.67,1.74S645.61,290.18,644.84,289.65Z" transform="translate(-550.69 -204.03)" style="fill: ;fill-rule: evenodd"/>    <path d="M645.92,297.92c-0.8-.75-1.54-1.82-2.63-2.77s-1.78-1.76-2.53-2.42a6.89,6.89,0,0,0-.95-0.59l0,0a1.78,1.78,0,0,0-.41-0.18,0.54,0.54,0,0,0-.31,0c-0.2.1,0.18,0.39,0.27,0.61a1.2,1.2,0,0,0,.11.34,5.5,5.5,0,0,0,.43.49l0.39,0.48c0.29,0.36.58,0.73,0.9,1.07,1.43,1.52,2.71,2.48,4,3.78a9.78,9.78,0,0,0,1.19,1.33,1.66,1.66,0,0,0,1-.35,0.27,0.27,0,0,0,.25-0.27A9.57,9.57,0,0,0,645.92,297.92Z" transform="translate(-550.69 -204.03)" style="fill: ;fill-rule: evenodd"/>    <path d="M640.43,296.59c-0.29-.33-0.52-0.73-0.76-1-0.54-.67-1.84-2-2.34-1.81a0.28,0.28,0,0,0-.14.14,0.81,0.81,0,0,0,.17.74c0.16,0.22.37,0.41,0.54,0.62s0.22,0.33.37,0.5c0.3,0.35,1.09,1.17,1.55,1.6s1.29,1.65,1.59,1.56,0.17-1.08.09-1.22A12.88,12.88,0,0,0,640.43,296.59Z" transform="translate(-550.69 -204.03)" style="fill: ;fill-rule: evenodd"/>    <path d="M638.09,297.86c-0.33-.36-0.64-0.76-0.93-1.15-0.16-.21-0.33-0.4-0.49-0.6a3,3,0,0,0-.71-0.81,0.23,0.23,0,0,0-.38.14,1.69,1.69,0,0,0,.27,1.05c0.1,0.2.25,0.38,0.36,0.58a5.78,5.78,0,0,0,.3.63,13.65,13.65,0,0,0,1.38,1.83,1.27,1.27,0,0,0,1.25-.56C639.17,298.67,638.45,298.25,638.09,297.86Z" transform="translate(-550.69 -204.03)" style="fill: ;fill-rule: evenodd"/>    <path d="M635,298.34a7.45,7.45,0,0,0-.65-0.81,4,4,0,0,0-.47-0.43,0.8,0.8,0,0,0-.41-0.11c-0.15,0-.06.37,0.07,0.59l0.12,0.21,0.38,0.7c0.11,0.2.25,0.36,0.38,0.56,0.22,0.35.42,0.7,0.64,1.05,0.39,0.63.89,1.24,1.2,0.82a3.43,3.43,0,0,0-.54-1.59A10.21,10.21,0,0,0,635,298.34Z" transform="translate(-550.69 -204.03)" style="fill: ;fill-rule: evenodd"/>    <path d="M632.62,299.46a2.69,2.69,0,0,0-.79-1.06,0.47,0.47,0,0,0-.48.2,0.83,0.83,0,0,0,0,.95,1.85,1.85,0,0,0,.14.21l0.15,0.2a3.86,3.86,0,0,1,.5.91,6.37,6.37,0,0,0,.54.9,3.7,3.7,0,0,0,1,1.24,0.7,0.7,0,0,0,.59-0.4c0.12-.37-0.53-1.12-0.93-1.83C633.16,300.33,632.86,299.89,632.62,299.46Z" transform="translate(-550.69 -204.03)" style="fill: ;fill-rule: evenodd"/>    <path d="M631.42,302.46a11.07,11.07,0,0,0-.81-1.19,7.86,7.86,0,0,0-.91-1.23c-0.2-.18-0.24-0.16-0.34-0.05a0.47,0.47,0,0,0-.15.52,1.49,1.49,0,0,0,.06.2,11.71,11.71,0,0,0,.9,1.55c0.5,0.87,1.11,2,1.58,3a3.25,3.25,0,0,0,.86,1.34c0.52,0,.37-0.91.28-1.21A17.45,17.45,0,0,0,631.42,302.46Z" transform="translate(-550.69 -204.03)" style="fill: ;fill-rule: evenodd"/>    <path d="M630.18,306.19a17,17,0,0,0-.63-1.61,15.39,15.39,0,0,0-.85-1.3,9.31,9.31,0,0,0-.62-0.89,1.26,1.26,0,0,0-.39-0.29,0.23,0.23,0,0,0-.23,0c-0.12.07-.09,0.21-0.05,0.44a3.59,3.59,0,0,0,.05.68,37.72,37.72,0,0,0,1.84,3.42c0.39,0.74.82,2.18,1.38,2a1.12,1.12,0,0,0,.25-1.14C630.8,307.16,630.37,306.61,630.18,306.19Z" transform="translate(-550.69 -204.03)" style="fill: ;fill-rule: evenodd"/>    <path d="M626.36,304.52l-0.46-.89c-0.23-.42-0.56-1.11-0.86-1l-0.06,0a0.62,0.62,0,0,0-.19.34,2.26,2.26,0,0,0,.3.88q0.19,0.43.35,0.88a7.18,7.18,0,0,0,.69,1.75,1.85,1.85,0,0,0,1.15.66c0.4-.22-0.33-1.32-0.52-1.86A6.54,6.54,0,0,0,626.36,304.52Z" transform="translate(-550.69 -204.03)" style="fill: ;fill-rule: evenodd"/>    <path d="M623.86,305.2a6.25,6.25,0,0,0-.92-1.68c-0.13-.17-0.17-0.24-0.29-0.23-0.28,0-.27.49-0.17,1,0,0.23.11,0.46,0.17,0.66,0.12,0.38.24,0.75,0.34,1.13a11.17,11.17,0,0,0,.32,1.14c0.28,0.72,1,2.83,1.58,2.66s0.18-1.47-.06-2.24S624.09,305.8,623.86,305.2Z" transform="translate(-550.69 -204.03)" style="fill: ;fill-rule: evenodd"/>    <path d="M620.84,305a2,2,0,0,0-.5-1,0.17,0.17,0,0,0-.16.08,0.84,0.84,0,0,0-.17.3,2.3,2.3,0,0,0,.13,1c0.1,0.35.15,0.72,0.24,1.06,0.26,0.9.79,3.17,1.24,3.21,1,0.07-.1-2.33-0.35-3.18Z" transform="translate(-550.69 -204.03)" style="fill: ;fill-rule: evenodd"/>    <path d="M616.25,308a12.43,12.43,0,0,0-.81-2.84c-0.11-.26-0.16-0.39-0.3-0.39s-0.14.75-.08,1.18v0c0.06,0.46.14,0.93,0.21,1.39s0,0.84.09,1.27c0.13,0.7.4,2.19,0.77,2.24,0.87,0.12.33-.93,0.18-1.93C616.25,308.61,616.3,308.31,616.25,308Z" transform="translate(-550.69 -204.03)" style="fill: ;fill-rule: evenodd"/>    <path d="M613.44,307.06a2.64,2.64,0,0,0-.35-0.89,4,4,0,0,1-.25-0.43c0-.05-0.06-0.19-0.09-0.22-0.2-.3-0.37.14-0.39,0.46v0a13.9,13.9,0,0,0,.19,2c0.08,0.56.1,1.15,0.2,1.71,0.16,0.84.51,2.15,0.59,3s0,1.5.79,1.22-0.38-4-.49-5.08C613.56,308.26,613.56,307.65,613.44,307.06Z" transform="translate(-550.69 -204.03)" style="fill: ;fill-rule: evenodd"/>    <path d="M610.72,308.6a6.73,6.73,0,0,0-.23-1.51,0.57,0.57,0,0,0-.26-0.39h0c-0.5-.07-0.35.92-0.27,1.62s0.21,1.53.34,2.26c0.19,1,.34,4.11,1.25,3.31,0.3-.27-0.34-2.83-0.53-3.84C610.88,309.56,610.78,309.09,610.72,308.6Z" transform="translate(-550.69 -204.03)" style="fill: ;fill-rule: evenodd"/>    <path d="M608.14,308.32a4,4,0,0,0-.2-1.37,0.46,0.46,0,0,0-.4-0.23,0.69,0.69,0,0,0-.29.63,4.92,4.92,0,0,0,0,.51V308c0,0.26.09,0.54,0.14,0.79l0.12,0.76c0.12,0.89-.1,2.63.59,2.52,0.44-.08.38-1.4,0.29-2.38C608.36,309.19,608.18,308.78,608.14,308.32Z" transform="translate(-550.69 -204.03)" style="fill: ;fill-rule: evenodd"/>    <path d="M605.55,308a2,2,0,0,0-.11-1.15,0.36,0.36,0,0,0-.39-0.09,0.56,0.56,0,0,0-.25.14,2.12,2.12,0,0,0-.08,1v0l0,1.16c0,0.73-.11,1.9.61,1.65a0.52,0.52,0,0,0,.31-0.53,10.61,10.61,0,0,0,0-1.25C605.61,308.69,605.56,308.35,605.55,308Z" transform="translate(-550.69 -204.03)" style="fill: ;fill-rule: evenodd"/>    <path d="M603,307.12c0-.32-0.07-0.42-0.22-0.45s-0.34.34-.39,0.78c0,0.18,0,.36-0.07.53l0,0.1c-0.05.26-.17,0.47-0.2,0.73a20.46,20.46,0,0,0,0,2.36c0,0.63-.22,1.13.35,1.1s0.34-1.74.32-2.53a7.15,7.15,0,0,1,.06-1.23A5.45,5.45,0,0,0,603,307.12Z" transform="translate(-550.69 -204.03)" style="fill: ;fill-rule: evenodd"/>    <path d="M600.07,306.73a0.62,0.62,0,0,0-.47.06l0,0.08a4.06,4.06,0,0,0-.15,1.19c0,0.43,0,.87,0,1.3,0,1.07-1,4.85-.12,5.1s0.7-.47.71-1.28,0.28-2.18.37-3c0.06-.5,0-1,0.06-1.52l0-.73a3.52,3.52,0,0,0,0-.86C600.42,306.7,600.25,306.68,600.07,306.73Z" transform="translate(-550.69 -204.03)" style="fill: ;fill-rule: evenodd"/>    <path d="M597.17,306.42l0,0.14c-0.08.3-.12,0.61-0.2,0.91a7.43,7.43,0,0,0-.24,1.22c0,0.32,0,.6,0,1-0.08,1-.55,2.1.33,1.92,0.37-.08.53-1.58,0.61-2.29,0-.28,0-0.47,0-0.72s0.08-.6.11-0.89a6,6,0,0,1,.09-0.62,3.22,3.22,0,0,0,.1-0.52,1,1,0,0,0-.16-0.74C597.51,305.52,597.31,305.92,597.17,306.42Z" transform="translate(-550.69 -204.03)" style="fill: ;fill-rule: evenodd"/>    <path d="M595.18,305.23a1.83,1.83,0,0,0-.81,1.33,20.09,20.09,0,0,0-.3,2.23,3.61,3.61,0,0,0-.2.93,0.55,0.55,0,0,0,.7.47,2,2,0,0,0,.46-1.4c0-.33.06-0.65,0.1-1a9.85,9.85,0,0,1,.25-1.05l0-.12a6.92,6.92,0,0,0,.08-1,0.43,0.43,0,0,0,0-.28A0.29,0.29,0,0,0,595.18,305.23Z" transform="translate(-550.69 -204.03)" style="fill: ;fill-rule: evenodd"/>    <path d="M592.47,305.54c-0.27-.1-0.51.31-0.67,0.82s-0.14.91-.26,1.39a10.91,10.91,0,0,0-.5,2.31c0,0.48.17,0.7,0.46,0.66,0.46-.07.81-2.37,1-3.29,0-.15,0-0.3,0-0.45s0.06-.29.09-0.43a1.74,1.74,0,0,0,0-.75A0.36,0.36,0,0,0,592.47,305.54Z" transform="translate(-550.69 -204.03)" style="fill: ;fill-rule: evenodd"/>    <path d="M590.29,304.09a1.43,1.43,0,0,0-.72.82c-0.13.25-.23,0.54-0.36,0.79a3.86,3.86,0,0,0-.31.75c-0.18.61-.62,1.85-0.78,2.49s-0.6,2.09.12,2.24,1.18-2,1.4-2.76a12.61,12.61,0,0,0,.25-1.29c0-.23.09-0.46,0.14-0.7,0-.06,0-0.12,0-0.18s0-.27.06-0.41C590.24,305.33,590.68,304.17,590.29,304.09Z" transform="translate(-550.69 -204.03)" style="fill: ;fill-rule: evenodd"/>    <path d="M587.56,304.32a0.33,0.33,0,0,0-.36-0.08,2.66,2.66,0,0,0-.61,1.21,13.36,13.36,0,0,0-.55,1.31c-0.15.55-.8,1.7-0.38,1.9a1.85,1.85,0,0,0,1.12-.73,6.34,6.34,0,0,0,.52-1.63c0.08-.29.17-0.59,0.25-0.88,0-.12.1-0.28,0.15-0.43a1.32,1.32,0,0,0,.09-0.45A0.27,0.27,0,0,0,587.56,304.32Z" transform="translate(-550.69 -204.03)" style="fill: ;fill-rule: evenodd"/>    <path d="M585,303.65a0.2,0.2,0,0,0-.27,0,0.66,0.66,0,0,0-.12.13c-0.1.14-.17,0.32-0.26,0.46l-0.35.61c-0.27.46-.57,0.92-0.8,1.42a16.58,16.58,0,0,0-.51,1.65c-0.16.44-.54,1-0.63,1.39a1.14,1.14,0,0,0,.35,1.13c0.58,0.13.9-1.33,1.23-2.1a35.79,35.79,0,0,0,1.58-3.54,2.32,2.32,0,0,0,0-.63A0.63,0.63,0,0,0,585,303.65Z" transform="translate(-550.69 -204.03)" style="fill: ;fill-rule: evenodd"/>    <path d="M580.66,301.67c0.19-.58.44-1.46-0.17-1.15a1.43,1.43,0,0,0-.41.34,8.43,8.43,0,0,0-1.05,1.83c-0.35.74-.94,1.53-0.79,1.89a0.74,0.74,0,0,0,.64.37,8.9,8.9,0,0,0,1.54-2.49C580.52,302.22,580.58,301.92,580.66,301.67Z" transform="translate(-550.69 -204.03)" style="fill: ;fill-rule: evenodd"/>    <path d="M576.7,298.08a1.15,1.15,0,0,0,.35-0.86c-0.05-.19-0.36-0.2-0.6-0.07a4.61,4.61,0,0,0-1.23,1.49c-0.33.5-.66,1-1,1.5s-1,.89-1,1.19a1.32,1.32,0,0,0,1.32.49,13.31,13.31,0,0,0,1.24-1.93c0.15-.27.23-0.59,0.36-0.87l0.06-.13A4.69,4.69,0,0,1,576.7,298.08Z" transform="translate(-550.69 -204.03)" style="fill: ;fill-rule: evenodd"/>    <path d="M574.67,296.17l-0.08,0a0.67,0.67,0,0,0-.64.07,3.22,3.22,0,0,0-.74.82c-0.23.33-.52,0.62-0.74,0.95s-0.42.74-.69,1.08a12.83,12.83,0,0,0-1,1.17c-0.07.15-.15,1.15,0.2,1.22s1-1.14,1.48-1.67,1.15-1.34,1.43-1.71C574.32,297.52,575.08,296.38,574.67,296.17Z" transform="translate(-550.69 -204.03)" style="fill: ;fill-rule: evenodd"/>    <path d="M573.35,294.48a0.2,0.2,0,0,0-.23-0.21,1.36,1.36,0,0,0-.87-0.19,11,11,0,0,0-1.14,1.38c-1.17,1.36-2.4,2.38-3.77,4-0.31.36-.57,0.77-0.85,1.15l-0.51.69-0.19.28a7.76,7.76,0,0,0-.45,1c-0.19.41,0.16,0.47,0.5,0.3a5.65,5.65,0,0,0,.83-0.61,29,29,0,0,0,2.86-3.09c1-1.06,1.64-2.19,2.37-3A11.33,11.33,0,0,0,573.35,294.48Z" transform="translate(-550.69 -204.03)" style="fill: ;fill-rule: evenodd"/>    <path d="M566.12,298.12c0.58,0.07,1.34-1.23,1.56-1.49,0.55-.66,1.2-1.29,1.81-1.89,0.3-.3.79-0.69,1.1-1a0.64,0.64,0,0,0,.23-0.74c-0.15-.21-0.61,0-1,0.34-0.19.19-.35,0.37-0.57,0.55l-0.69.56c-0.29.24-.56,0.32-0.84,0.59s-2.22,2.2-2.25,2.34A1,1,0,0,0,566.12,298.12Z" transform="translate(-550.69 -204.03)" style="fill: ;fill-rule: evenodd"/>    <path d="M566.32,290.51c0.21-.18.44-0.34,0.63-0.54l0,0c0.1-.1.19-0.22,0.3-0.32s0.17-.13.22-0.19a0.31,0.31,0,0,0,.05-0.38c-0.44-.82-2.6,1.4-3.4,2-0.53.4-1.14,1-.88,1.34s1.46-.53,2.34-1.25C565.89,291,566.08,290.72,566.32,290.51Z" transform="translate(-550.69 -204.03)" style="fill: ;fill-rule: evenodd"/>    <path d="M564.55,288.7c0.29-.26.59-0.5,0.88-0.75a7.19,7.19,0,0,0,.65-0.61,0.68,0.68,0,0,0,.24-0.63c-0.05-.29-0.5-0.15-0.93.06-0.23.11-.45,0.25-0.68,0.34a3.43,3.43,0,0,0-.83.44,14.35,14.35,0,0,0-1.5,1.18,1,1,0,0,0,.2.61c0.06,0.34-.36.36,0,0.6a1.76,1.76,0,0,0,.73-0.19A7.3,7.3,0,0,0,564.55,288.7Z" transform="translate(-550.69 -204.03)" style="fill: ;fill-rule: evenodd"/>    <path d="M563.57,286.18a1,1,0,0,0,.18-0.16l0.14-.17a6.35,6.35,0,0,1,.57-0.48,3.16,3.16,0,0,0,.42-0.46c0.2-.26.23-0.47,0-0.52a2.86,2.86,0,0,0-1.66.68l-0.86.6a7.08,7.08,0,0,0-1,.54,1.33,1.33,0,0,0-.09.58c0,0.18-.31.37-0.08,0.58s1.18-.4,1.52-0.61S563.29,286.39,563.57,286.18Z" transform="translate(-550.69 -204.03)" style="fill: ;fill-rule: evenodd"/>    <path d="M561.72,284.16a3.05,3.05,0,0,0,.89-0.57c0.22-.19.53-0.35,0.77-0.53l0.1-.07c0.43-.33.74-0.69,0.45-0.87a1.52,1.52,0,0,0-1.18.23c-0.54.24-1,.64-1.5,0.92a1,1,0,0,0-.71.76A1,1,0,0,0,561.72,284.16Z" transform="translate(-550.69 -204.03)" style="fill: ;fill-rule: evenodd"/>    <path d="M562.6,280.28c-0.05-.2-0.39-0.13-0.76,0s-0.76.35-1,.46c-0.75.37-2.06,0.54-2.55,1.16a0.59,0.59,0,0,0,0,.74,1.4,1.4,0,0,0,1-.39c0.7-.38,1.37-0.76,2.09-1.1C561.84,281,562.69,280.58,562.6,280.28Z" transform="translate(-550.69 -204.03)" style="fill: ;fill-rule: evenodd"/>    <path d="M560.35,278.93c1-.39,1.34-0.37,1-1.06s-0.71-.26-1.61.19-2,.91-2.65,1.2c-0.26.12-.5,0.27-0.76,0.39a2.81,2.81,0,0,0-.74.51c-0.18.18,0,.31,0.1,0.42a1.17,1.17,0,0,0,1-.06c0.28-.06.55-0.22,0.83-0.29a2.43,2.43,0,0,0,.63-0.12c0.19-.1.29-0.28,0.53-0.42A11.85,11.85,0,0,1,560.35,278.93Z" transform="translate(-550.69 -204.03)" style="fill: ;fill-rule: evenodd"/>    <path d="M558.84,276.7a3.22,3.22,0,0,0,1.17-.33,1,1,0,0,0,.06-0.57c0.07-.25.36-0.35,0.2-0.56s-1.39.29-2.27,0.64c-1.24.49-2.42,1.07-3.5,1.36a11.15,11.15,0,0,0-2.19.91c-0.42.23-.55,0.49-0.33,0.7a1.42,1.42,0,0,0,1.15.08c0.48-.1,1-0.27,1.33-0.37a12.52,12.52,0,0,0,1.21-.35C556.77,277.73,558,277,558.84,276.7Z" transform="translate(-550.69 -204.03)" style="fill: ;fill-rule: evenodd"/>    <path d="M556.22,271.92a8,8,0,0,0,1.95-.54,2.76,2.76,0,0,0,.92-0.4c0.14-.19,0-0.28-0.3-0.31a2.55,2.55,0,0,0-.44,0,4.67,4.67,0,0,0-1.2.25,4.4,4.4,0,0,1-.86.18c-0.51.07-1.05,0.15-1,.5A0.88,0.88,0,0,0,556.22,271.92Z" transform="translate(-550.69 -204.03)" style="fill: ;fill-rule: evenodd"/>    <path d="M554.15,266.85a1.35,1.35,0,0,0,1.09.08c0.53-.1,1-0.19,1.56-0.26a10.34,10.34,0,0,0,1.42-.3c0.26-.07.39-0.11,0.41-0.26a0.4,0.4,0,0,0-.18-0.39,2.06,2.06,0,0,0-1.21-.12l-0.4,0a5.84,5.84,0,0,1-.91.09,3.63,3.63,0,0,0-1,0A1.3,1.3,0,0,0,554.15,266.85Z" transform="translate(-550.69 -204.03)" style="fill: ;fill-rule: evenodd"/>    <path d="M556.24,263.05c-0.37,0-.72,0-1.09.05a2.19,2.19,0,0,0-.8.11,0.21,0.21,0,0,0-.13.31,0.33,0.33,0,0,1,.08.25,0.35,0.35,0,0,0,.09.29,0.67,0.67,0,0,0,.58.08c0.28-.06.54-0.07,0.83-0.11s0.7-.19,1.07-0.25,0.56,0,.8-0.08a0.74,0.74,0,0,0,.35-0.21c0.18-.15.21-0.31,0-0.44a1.34,1.34,0,0,0-.67-0.12C557,262.95,556.58,263,556.24,263.05Z" transform="translate(-550.69 -204.03)" style="fill: ;fill-rule: evenodd"/>    <path d="M554,261.43c0.41,0,.82,0,1.23,0,0.2,0,.36,0,0.56,0s0.41,0,.62,0a4.82,4.82,0,0,0,.87-0.13l0.16,0c0.49-.17.37-0.4-0.12-0.52s-0.85-.14-1.24-0.2a5,5,0,0,0-1.08-.06c-0.33,0-.63.12-1,0.17a12.51,12.51,0,0,1-1.85-.23c-0.24,0-1.09.46-.87,0.88s0.46,0.08,1,.08S553.44,261.41,554,261.43Z" transform="translate(-550.69 -204.03)" style="fill: ;fill-rule: evenodd"/>    <path d="M556.75,269.28c0.45-.12.93-0.17,1.37-0.33s0.55-.48.3-0.67a2.3,2.3,0,0,0-1.27-.19H557c-0.28,0-.53.08-0.8,0.12a1.83,1.83,0,0,0-.84.2,1.46,1.46,0,0,0-.22.54c-0.2.27-.62,0.16-0.49,0.49s0.77,0.19,1.25.07Z" transform="translate(-550.69 -204.03)" style="fill: ;fill-rule: evenodd"/>    <path d="M555.52,275.2A2.76,2.76,0,0,0,556,275l0.89-.46a23.7,23.7,0,0,1,2.23-.94c0.41-.15.74-0.33,0.63-0.54a0.81,0.81,0,0,0-.9-0.12,22.28,22.28,0,0,0-2.71,1c-0.37.13-1,.12-1.25,0.26C553.83,274.68,554.52,275.44,555.52,275.2Z" transform="translate(-550.69 -204.03)" style="fill: ;fill-rule: evenodd"/>    <path d="M566.88,292.43c-0.73.59-1.71,1.61-1.38,1.89s1.23-.72,1.54-1l0.95-.87a2.73,2.73,0,0,0,.38-0.48c0.06-.08.15-0.18,0.25-0.28,0.24-.26.49-0.54,0.34-0.67a1,1,0,0,0-.77.34c-0.21.16-.37,0.35-0.59,0.52Z" transform="translate(-550.69 -204.03)" style="fill: ;fill-rule: evenodd"/>    <path d="M578.5,299.33a1.65,1.65,0,0,1-.2.1,0.41,0.41,0,0,0-.39.2l-0.19.25-0.25.36a7.93,7.93,0,0,0-.82,1.25,3.38,3.38,0,0,0-.41,1.63c0.36,0.41.83-.28,1.18-1,0.2-.37.37-0.75,0.58-1.12a5.13,5.13,0,0,0,.71-1.41C578.73,299.38,578.71,299.26,578.5,299.33Z" transform="translate(-550.69 -204.03)" style="fill: ;fill-rule: evenodd"/>    <path d="M583,302.65a0.58,0.58,0,0,0,0-.13,0.41,0.41,0,0,0-.25-0.29,0.81,0.81,0,0,0-.77.59c-0.25.47-.59,0.94-0.8,1.43a17,17,0,0,0-1.25,3c-0.07.3-.14,1.26,0.38,1.19a3.14,3.14,0,0,0,.76-1.4c0.4-1,.92-2.19,1.36-3.09A5.37,5.37,0,0,0,583,302.65Z" transform="translate(-550.69 -204.03)" style="fill: ;fill-rule: evenodd"/>    <path d="M618,304.71a0.49,0.49,0,0,0-.43-0.32c-0.23,0-.42,0-0.34.54,0,0.1,0,.2,0,0.3,0.09,0.44.23,0.89,0.35,1.32s0.16,0.7.22,1.06,0.21,1.6.61,1.73a0.53,0.53,0,0,0,.65-0.51,3.71,3.71,0,0,0-.27-0.92A10.9,10.9,0,0,0,618,304.71Z" transform="translate(-550.69 -204.03)" style="fill: ;fill-rule: evenodd"/>    <path d="M641.1,291l0.12,0.11c1,0.94,2.16,1.78,3.12,2.77,0.24,0.24,1.1,1.48,1.67,1.38a0.93,0.93,0,0,0,.54-0.83c0-.13-2-1.84-2.41-2.17s-0.58-.31-0.88-0.53l-0.76-.53c-0.25-.18-0.47-0.39-0.73-0.57s-0.38-.23-0.59-0.35a0.89,0.89,0,0,0-.51-0.25c-0.15,0-.13.24,0,0.44A2.71,2.71,0,0,0,641.1,291Z" transform="translate(-550.69 -204.03)" style="fill: ;fill-rule: evenodd"/>    <path d="M655.1,262.19a1.87,1.87,0,0,0-1.07,0c-0.46,0-1.12-.16-1.57-0.08s-0.69.46-.27,0.69a3.77,3.77,0,0,0,.82.26c1,0.22,2.46.42,2.7,0.08A1.05,1.05,0,0,0,655.1,262.19Z" transform="translate(-550.69 -204.03)" style="fill: ;fill-rule: evenodd"/>  </g></g><g id="main_text" rel="mainfill" name="main_text" feature="main_text" xmlns:name="mainText_mainfill" groupName="main_text" fill="#6881a9" transform="translate(0, 55) scale(null)"><path d=""/></g><g id="SvgjsG3903" rel="mainfill" name="symbol" feature="symbol" xmlns:name="symbol_mainfill" fill="#6881a9" transform="translate(-9.42072554429372, -6.75560344590081) scale(1.2430555555555556)"><g><ellipse cx="22.122" cy="43.161" rx="0.344" ry="0.812"/><path d="M76.449,47.517c-1.102-0.26-2.109,0.061-2.71,0.39c-0.614,0.339-0.894,0.683-0.836,0.754     c0.059,0.077,0.424-0.11,1.029-0.308c0.602-0.192,1.464-0.38,2.362-0.166c0.898,0.2,1.605,0.745,2.071,1.176     c0.469,0.434,0.763,0.733,0.85,0.673c0.07-0.046-0.081-0.446-0.493-1.004C78.319,48.487,77.55,47.766,76.449,47.517z"/><ellipse cx="23.84" cy="42.348" rx="0.5" ry="0.75"/><path d="M31.355,42.337c-0.948,0.211-2.166,0.844-3.239,1.823c-2.17,1.954-3.18,4.114-3.026,4.189     c0.172,0.114,1.423-1.827,3.481-3.674c1.021-0.929,2.09-1.563,2.923-1.872c0.833-0.311,1.408-0.328,1.409-0.454     c0.001-0.047-0.142-0.083-0.411-0.104C32.219,42.201,31.833,42.244,31.355,42.337z"/><ellipse transform="matrix(0.8499 -0.5269 0.5269 0.8499 -9.9854 22.1408)" cx="33.872" cy="28.598" rx="0.344" ry="1.838"/><ellipse transform="matrix(0.4274 -0.9041 0.9041 0.4274 -1.97 53.7734)" cx="41.465" cy="28.442" rx="1.901" ry="0.344"/><circle cx="36.84" cy="35.786" r="0.625"/><circle cx="32.465" cy="35.161" r="0.625"/><path d="M47.465,47.752c-0.01-0.104-0.771,0.091-1.88-0.226c-0.506-0.18-1.25-0.523-1.242-1.157     c-0.015-0.323,0.107-0.706,0.294-1.078c0.092-0.187,0.202-0.374,0.321-0.56l0.213-0.308c0.135-0.189,0.302-0.381,0.456-0.573     c-0.878-0.413-1.021-0.524-1.375-0.749c-0.421-0.282-0.845-0.645-0.912-0.954c-0.039-0.154,0.013-0.336,0.072-0.624     c0.063-0.283,0.025-0.638-0.092-0.897c-0.227-0.529-0.601-0.858-0.89-1.161c-0.281-0.266-0.466-0.575-0.574-0.879     c-0.215-0.615-0.122-1.191-0.031-1.564c0.092-0.38,0.182-0.585,0.14-0.612c-0.036-0.025-0.211,0.14-0.392,0.522     c-0.175,0.373-0.378,1.008-0.182,1.794c0.099,0.385,0.307,0.792,0.625,1.13c0.278,0.319,0.58,0.638,0.715,1.003     c0.066,0.182,0.082,0.334,0.036,0.541c-0.039,0.196-0.16,0.519-0.086,0.884c0.199,0.725,0.732,1.049,1.188,1.388     c0.246,0.171,0.609,0.371,0.707,0.422l0,0.003l-0.181,0.276c-0.128,0.209-0.246,0.42-0.345,0.639     c-0.198,0.433-0.347,0.901-0.306,1.398c0.018,0.504,0.39,0.96,0.727,1.144c0.335,0.214,0.683,0.338,1,0.407     C46.765,48.189,47.493,47.807,47.465,47.752z"/><path d="M83.402,55.448c-0.013-0.26-0.372-6.395-4.512-9.5c-3.214-2.412-7.141,0.943-9.061,2.976     c-2.414-3.416-7.782-5.992-19.704-0.635c-0.614-0.858-1.32-2.095-1.23-2.604c0.284-1.609,0.014-2.667-0.803-3.144     c-0.452-0.263-0.548-0.625-0.741-1.491l-0.087-0.379c-0.301-1.28-1.052-2.573-2.049-2.573c-0.035,0-0.091-0.037-0.148-0.099     c-0.258-0.279-0.452-0.945-0.416-1.425c0.059-0.754,0.138-1.786-1.314-2.148c-0.558-0.14-0.606-0.247-0.787-0.644     c-0.059-0.127-0.123-0.268-0.208-0.423c-0.234-0.431-0.571-0.812-0.826-1.067c0.921-1.238,3.623-5.267,2.551-8.597l-0.181-0.562     l-0.524,0.271c-0.166,0.085-3.91,2.067-4.629,6.65c-0.49-0.129-1.197-0.226-1.855,0.002c-0.741-1.459-2.924-5.672-3.881-6.572     l-0.328-0.309l-0.341,0.294c-0.028,0.024-2.805,2.477-0.585,5.806c1.286,1.929,2.352,3.025,2.978,3.58l-0.14,0.084     c-0.068,0.041-0.157,0.096-0.233,0.143c-0.51-0.463-1.172-0.743-1.882-0.743c-1.556,0-2.821,1.266-2.821,2.822     c0,0.278,0.053,0.541,0.128,0.794c-0.141,0.091-0.285,0.184-0.422,0.274c-2.032,1.333-2.783,1.93-3.081,2.248     c-1.128,0.029-4.959,0.275-5.341,2.288c-0.495,0.635-2.459,3.545-0.269,7.274c2.333,3.974,3.799,5.545,8.049,3.9     c3.42-1.324,5.76-5.313,6.442-6.602c0.696,0.214,2.067,0.528,3.016,0.042c0.536,2.274,2.246,8.517,5.872,13.861l1.036,13.817     c-0.751,0.087-2.19,0.359-2.893,1.18c-0.312,0.364-0.45,0.809-0.399,1.284l0.027,0.257l0.236,0.104     c0.053,0.022,1.043,0.45,2.479,0.45c0.309,0,0.644-0.027,0.99-0.075c0.166,0.06,3.318,1.167,6.439-0.004l0.312-0.116l0.36-9.458     c1.724,0.693,3.538,1.043,5.403,1.043c0.06,0,1.332-0.008,3.091-0.353l0.604,5.687c-0.751,0.087-2.19,0.359-2.893,1.18     c-0.312,0.364-0.449,0.809-0.398,1.284l0.023,0.22l0.189,0.114c0.046,0.028,0.911,0.54,2.333,0.54     c0.368,0,0.78-0.046,1.217-0.131c0.168,0.06,1.534,0.525,3.323,0.524c0.955,0,2.028-0.133,3.097-0.534l0.312-0.116l0.508-13.341     c1.789-2.259,2.535-5.178,2.219-8.651c-0.002-0.05-0.042-1.141-0.499-2.55c0.956-0.586,2.699-1.282,5.156-0.818     c2.91,0.549,3.527,5.517,3.533,5.567l0.286,2.43l0.69-2.347c0.183-0.621,0.247-1.768,0.268-2.689     c0.68,0.915,1.387,1.994,1.396,2.009l1.013,1.549L83.402,55.448z M32.465,33.232c0.748,0,1.435,0.443,1.749,1.128l0.318,0.694     l0.449-0.618c0.441-0.607,1.119-0.955,1.858-0.955c1.271,0,2.304,1.033,2.304,2.303s-1.033,2.303-2.304,2.303     c-0.966,0-1.834-0.617-2.161-1.536l-0.258-0.725l-0.502,0.583c-0.371,0.431-0.901,0.678-1.454,0.678     c-1.063,0-1.929-0.865-1.929-1.928S31.402,33.232,32.465,33.232z M45.189,75.401c-1.137,0.121-2.066-0.101-2.506-0.239     c0.027-0.124,0.086-0.236,0.178-0.345c0.568-0.664,2.152-0.881,2.715-0.908l0.458-0.022l-0.996-13.279     c0.687,0.891,1.403,1.716,2.141,2.437c0.055,0.053,0.112,0.104,0.167,0.156l-0.096,10.226c-0.613,0.203-1.221,0.51-1.619,0.974     C45.378,74.695,45.232,75.036,45.189,75.401z M80.944,51.995l-0.881-0.88l0.027,1.245c0.005,0.233,0.008,0.593,0.003,1.005     c-0.615-1.548-1.707-3.213-3.598-3.57c-3.121-0.587-5.241,0.491-6.229,1.188l-0.312,0.221l0.131,0.359     c0.521,1.427,0.567,2.604,0.569,2.644c0.3,3.3-0.406,6.021-2.101,8.088l-0.106,0.13l-0.495,13.001     c-2.128,0.68-4.28,0.221-5.098-0.005c0.031-0.132,0.096-0.252,0.194-0.368c0.636-0.743,2.409-0.986,3.039-1.018l0.513-0.024     l-0.707-9.424l-0.673,0.349c-0.294,0.153-0.427,0.22-0.724,0.348l-0.511,8.122c-0.639,0.203-1.282,0.513-1.696,0.997     c-0.257,0.3-0.406,0.649-0.446,1.024c-1.244,0.205-2.133-0.066-2.519-0.23c0.022-0.137,0.083-0.26,0.184-0.378     c0.567-0.664,2.151-0.881,2.714-0.908l0.458-0.022l-0.585-7.825l-1.054,0.302c-1.721,0.348-3.001,0.359-3.014,0.359     c-1.967,0-3.872-0.419-5.665-1.245l-0.68-0.313l-0.392,10.261c-2.128,0.68-4.28,0.221-5.098-0.005     c0.031-0.132,0.096-0.252,0.194-0.368c0.636-0.743,2.409-0.986,3.039-1.018l0.513-0.024L49.149,63.47l-0.162-0.136     c-0.151-0.126-0.301-0.254-0.448-0.385c-0.226-0.201-0.446-0.407-0.662-0.619c-0.771-0.755-1.525-1.62-2.241-2.571     c-4.896-6.516-6.662-15.356-6.679-15.445l-0.273-1.402l-0.661,1.266c-0.438,0.842-2.312,0.327-2.934,0.08l-0.436-0.173     l-0.201,0.423c-0.024,0.051-2.457,5.087-6.104,6.499c-3.437,1.331-4.486,0.509-6.826-3.475c-2.088-3.556,0.155-6.116,0.252-6.223     l0.112-0.125l0.016-0.165c0.109-1.167,3.165-1.546,4.627-1.547l0.053,0.01c0.254,0.07,0.559,0.136,0.885,0.204     c0.842,0.158,1.469,0.395,1.604,0.206c0.147-0.191-0.49-0.886-1.458-1.066c-0.067-0.014-0.131-0.021-0.197-0.031     c0.388-0.307,1.107-0.828,2.484-1.731c0.106-0.069,0.216-0.141,0.324-0.211c0.516,0.681,1.324,1.128,2.242,1.128     c0.596,0,1.172-0.193,1.65-0.544c0.571,0.943,1.6,1.544,2.725,1.544c1.763,0,3.196-1.434,3.196-3.197s-1.434-3.197-3.196-3.197     c-0.236,0-0.468,0.035-0.695,0.086l-0.285-0.185c-0.014-0.009-1.388-0.921-3.287-3.77c-1.291-1.937-0.467-3.453,0.062-4.122     c0.983,1.327,2.854,4.917,3.569,6.349l0.257,0.514l0.474-0.326c0.625-0.428,1.662-0.115,2.01,0.043l0.642,0.29l0.063-0.7     c0.31-3.408,2.551-5.374,3.613-6.123c0.492,3.294-2.775,7.343-2.811,7.386l-0.316,0.387l0.387,0.316     c0.17,0.139,0.671,0.608,0.94,1.102c0.071,0.132,0.125,0.251,0.175,0.359c0.26,0.569,0.501,0.96,1.455,1.199     c0.59,0.147,0.623,0.289,0.561,1.102c-0.052,0.665,0.165,1.627,0.679,2.182c0.321,0.346,0.656,0.419,0.882,0.419     c0.266,0,0.817,0.702,1.076,1.802l0.083,0.368c0.197,0.881,0.367,1.643,1.214,2.137c0.52,0.303,0.462,1.312,0.322,2.106     c-0.216,1.219,1.345,3.301,1.66,3.707l0.243,0.312l0.359-0.165c12.156-5.567,17.129-2.729,19.162,0.629l0.351,0.58l0.451-0.507     c1.513-1.702,5.331-5.434,8.153-3.319c2.333,1.75,3.354,4.674,3.792,6.656C81.682,52.853,81.259,52.31,80.944,51.995z      M64.886,73.18l0.261-5.182l0.382,5.083C65.347,73.102,65.124,73.136,64.886,73.18z M48.143,73.195l0.082-8.684l0.643,8.569     C48.664,73.104,48.414,73.141,48.143,73.195z"/><path d="M50.889,57.682l-0.204,0.007l-0.086,0.007c-0.188-0.483-0.338-0.867-0.441-1.131c-0.119-0.285-0.196-0.434-0.223-0.425     c-0.027-0.009-0.104,0.141-0.224,0.426c-0.103,0.264-0.253,0.648-0.441,1.13l-0.086-0.007l-0.204-0.007     c-0.139-0.004-0.284-0.009-0.434-0.013c-0.494-0.007-1.022-0.015-1.582-0.023c0.552,0.412,1.157,0.864,1.801,1.345     c-0.238,0.716-0.491,1.476-0.753,2.266c0.621-0.449,1.264-0.914,1.922-1.39c0.659,0.476,1.302,0.941,1.922,1.39     c-0.262-0.789-0.514-1.547-0.753-2.266c0.644-0.481,1.247-0.932,1.801-1.345c-0.56,0.008-1.089,0.016-1.583,0.023     C51.173,57.674,51.028,57.678,50.889,57.682z M51.577,58.038l0.087,0.011l-0.083,0.05l-0.033,0.019     c-0.008,0.004-0.007,0.002-0.09,0.06c-0.289,0.204-0.588,0.416-0.897,0.635c0.102,0.324,0.207,0.656,0.314,0.996     c0.065,0.206,0.037,0.121,0.044,0.146l-0.001,0.006l-0.008-0.009l-0.002-0.002l0-0.001l-0.087-0.064     c-0.291-0.212-0.586-0.427-0.884-0.644c-0.298,0.217-0.593,0.432-0.884,0.644l-0.088,0.064l0,0.001l-0.002,0.002l-0.008,0.009     l-0.001-0.006c0.007-0.024-0.022,0.059,0.044-0.147c0.107-0.341,0.212-0.673,0.314-0.995C49,58.595,48.7,58.383,48.412,58.178     c-0.082-0.058-0.081-0.056-0.089-0.06l-0.034-0.019l-0.083-0.05l0.087-0.011l0.057-0.006l0.197-0.006     c0.339-0.01,0.655-0.019,0.944-0.027c0.088-0.311,0.167-0.59,0.236-0.834c0.055-0.215,0.101-0.398,0.139-0.548     c0.034-0.145,0.057-0.257,0.07-0.337c0.012,0.08,0.035,0.192,0.069,0.336c0.038,0.15,0.085,0.333,0.139,0.548     c0.069,0.244,0.148,0.523,0.236,0.835c0.288,0.008,0.603,0.017,0.943,0.027l0.198,0.006L51.577,58.038z"/><path d="M59.257,57.669c-0.15,0.005-0.295,0.009-0.434,0.013l-0.204,0.007l-0.086,0.007c-0.188-0.483-0.338-0.867-0.441-1.131     c-0.119-0.285-0.196-0.434-0.223-0.425c-0.027-0.009-0.104,0.141-0.224,0.426c-0.103,0.264-0.253,0.648-0.441,1.13l-0.086-0.007     l-0.204-0.007c-0.139-0.004-0.284-0.009-0.434-0.013c-0.494-0.007-1.022-0.015-1.582-0.023c0.552,0.412,1.157,0.864,1.801,1.345     c-0.238,0.716-0.491,1.476-0.753,2.266c0.621-0.449,1.264-0.914,1.922-1.39c0.659,0.476,1.302,0.941,1.922,1.39     c-0.262-0.789-0.514-1.547-0.753-2.266c0.644-0.481,1.247-0.932,1.801-1.345C60.279,57.654,59.75,57.662,59.257,57.669z      M59.481,58.118c-0.008,0.004-0.007,0.002-0.09,0.06c-0.289,0.204-0.588,0.416-0.897,0.635c0.102,0.324,0.207,0.656,0.314,0.996     c0.065,0.206,0.037,0.121,0.044,0.146l-0.001,0.006l-0.008-0.009l-0.002-0.002l0-0.001l-0.087-0.064     c-0.291-0.212-0.586-0.427-0.884-0.644c-0.298,0.217-0.593,0.432-0.884,0.644l-0.088,0.064l0,0.001l-0.002,0.002l-0.008,0.009     l-0.001-0.006c0.007-0.024-0.022,0.059,0.044-0.147c0.107-0.341,0.212-0.673,0.314-0.995c-0.309-0.219-0.609-0.431-0.898-0.636     c-0.082-0.058-0.081-0.056-0.089-0.06l-0.034-0.019l-0.083-0.05l0.087-0.011l0.057-0.006l0.197-0.006     c0.339-0.01,0.655-0.019,0.944-0.027c0.088-0.311,0.167-0.59,0.236-0.834c0.055-0.215,0.101-0.398,0.139-0.548     c0.034-0.145,0.057-0.257,0.07-0.337c0.012,0.08,0.035,0.192,0.069,0.336c0.038,0.15,0.085,0.333,0.139,0.548     c0.069,0.244,0.148,0.523,0.236,0.835c0.288,0.008,0.603,0.017,0.943,0.027l0.198,0.006l0.057,0.006l0.087,0.011l-0.083,0.05     L59.481,58.118z"/><path d="M66.757,57.682l-0.204,0.007l-0.086,0.007c-0.188-0.483-0.338-0.867-0.441-1.131c-0.119-0.285-0.196-0.434-0.223-0.425     c-0.027-0.009-0.104,0.141-0.224,0.426c-0.103,0.264-0.253,0.648-0.441,1.13l-0.086-0.007l-0.204-0.007     c-0.139-0.004-0.284-0.009-0.434-0.013c-0.494-0.007-1.022-0.015-1.582-0.023c0.552,0.412,1.157,0.864,1.801,1.345     c-0.238,0.716-0.491,1.476-0.753,2.266c0.621-0.449,1.264-0.914,1.922-1.39c0.659,0.476,1.302,0.941,1.922,1.39     c-0.262-0.789-0.514-1.547-0.753-2.266c0.644-0.481,1.247-0.932,1.801-1.345c-0.56,0.008-1.089,0.016-1.583,0.023     C67.04,57.674,66.896,57.678,66.757,57.682z M67.445,58.038l0.087,0.011l-0.083,0.05l-0.033,0.019     c-0.008,0.004-0.007,0.002-0.09,0.06c-0.289,0.204-0.588,0.416-0.897,0.635c0.102,0.324,0.207,0.656,0.314,0.996     c0.065,0.206,0.037,0.121,0.044,0.146l-0.001,0.006l-0.008-0.009l-0.002-0.002l-0.001-0.001l-0.087-0.064     c-0.291-0.212-0.586-0.427-0.884-0.644c-0.298,0.217-0.593,0.432-0.884,0.644l-0.088,0.064l0,0.001l-0.002,0.002l-0.008,0.009     l-0.001-0.006c0.007-0.024-0.021,0.059,0.044-0.147c0.107-0.341,0.212-0.673,0.314-0.995c-0.309-0.219-0.609-0.431-0.898-0.636     c-0.082-0.058-0.081-0.056-0.089-0.06l-0.034-0.019l-0.083-0.05l0.087-0.011l0.057-0.006l0.197-0.006     c0.339-0.01,0.655-0.019,0.944-0.027c0.088-0.311,0.167-0.59,0.236-0.834c0.055-0.215,0.101-0.398,0.139-0.548     c0.034-0.145,0.057-0.257,0.07-0.337c0.012,0.08,0.035,0.192,0.069,0.336c0.038,0.15,0.085,0.333,0.139,0.548     c0.069,0.244,0.148,0.523,0.236,0.835c0.288,0.008,0.603,0.017,0.943,0.027l0.198,0.006L67.445,58.038z"/></g></g>
			</g>
		</svg>
	