
		<svg xmlns="http://www.w3.org/2000/svg" xmlns:xlink="http://www.w3.org/1999/xlink" version="1.1" width="3069.364161849711" height="537.5722543352601">
			
			<g transform="scale(3.468208092485549) translate(10, 10)">
				<defs id="SvgjsDefs3113"/><g id="main_text" rel="mainfill" name="main_text" feature="main_text" xmlns:name="mainText_mainfill" groupName="main_text" fill="#374c6d" transform="translate(103.52000060081483, -9.055990600585936) scale(5.6)"><path d="M1.8 20 q-0.42 0 -0.71 -0.29 t-0.29 -0.71 l0 -2.12 l2.58 0 l0 0.62 l4.92 0 l0 -1.24 l-6.5 0 q-0.42 0 -0.71 -0.3 t-0.29 -0.7 l0 -4.26 q0 -0.4 0.29 -0.7 t0.71 -0.3 l1.58 0 l6.5 0 q0.42 0 0.71 0.3 t0.29 0.7 l0 2.14 l-2.58 0 l0 -0.64 l-4.92 0 l0 1.26 l6.5 0 q0.42 0 0.71 0.29 t0.29 0.69 l0 4.28 q0 0.4 -0.29 0.69 t-0.71 0.29 l-8.08 0 z M20.78 12.5 l-4.92 0 l0 5 l3.9 0 q0.42 0 0.72 -0.3 t0.3 -0.7 l0 -4 z M20.78 10 l2.58 0 l0 13.74 l-2.58 0 l0 -4.74 q0 0.4 -0.3 0.7 t-0.7 0.3 l-5.5 0 q-0.42 0 -0.71 -0.3 t-0.29 -0.7 l0 -8 q0 -0.42 0.29 -0.71 t0.71 -0.29 l5.5 0 q0.4 0 0.7 0.29 t0.3 0.71 l0 -1 z M32.42 10 l2.58 0 l0 10 l-2.58 0 l0 -1 q0 0.42 -0.3 0.71 t-0.72 0.29 l-4.64 0 q-0.42 0 -0.71 -0.29 t-0.29 -0.71 l0 -9 l2.58 0 l0 7.5 l3.06 0 q0.42 0 0.72 -0.29 t0.3 -0.71 l0 -6.5 z M38.38 20 q-0.4 0 -0.69 -0.29 t-0.29 -0.71 l0 -4.24 q0 -0.42 0.29 -0.71 t0.71 -0.29 l6.5 0 l0 -1.26 l-4.92 0 l0 0.62 l-2.58 0 l0 -2.12 q0 -0.42 0.29 -0.71 t0.71 -0.29 l8.08 0 q0.42 0 0.71 0.29 t0.29 0.71 l0 9 l-2.58 0 l0 -1 q0 0.42 -0.29 0.71 t-0.71 0.29 l-5.52 0 z M44.900000000000006 17.5 l0 -1.24 l-4.92 0 l0 1.24 l4.92 0 z M52.92 6.26 l0 3.74 l1.76 0 l0 2.5 l-1.76 0 l0 5 l1.76 0 l0 2.5 l-3.36 0 q-0.4 0 -0.7 -0.29 t-0.3 -0.69 l0 -6.52 l-1.24 0 l0 -2.5 l1.24 0 l0 -3.74 l2.6 0 z  M74.17999999999999 19 q0 0.42 -0.3 0.71 t-0.7 0.29 l-5.5 0 q-0.42 0 -0.71 -0.29 t-0.29 -0.71 l0 -8 q0 -0.4 0.29 -0.7 t0.71 -0.3 l5.5 0 q0.4 0 0.7 0.3 t0.3 0.72 l0 -4.76 l2.58 0 l0 13.74 l-2.58 0 l0 -1 z M73.17999999999999 17.5 q0.4 0 0.7 -0.29 t0.3 -0.71 l0 -4 l-4.92 0 l0 5 l3.92 0 z M86.66 12.5 l-4.92 0 l0 5 l4.92 0 l0 -5 z M89.24 19 q0 0.42 -0.29 0.71 t-0.71 0.29 l-8.08 0 q-0.42 0 -0.71 -0.29 t-0.29 -0.71 l0 -7.98 q0 -0.42 0.29 -0.72 t0.71 -0.3 l8.08 0 q0.42 0 0.71 0.3 t0.29 0.7 l0 8 z M94.22 20 l-2.58 0 l0 -10 l2.58 0 l0 1 q0 -0.4 0.3 -0.7 t0.7 -0.3 l4.66 0 q0.42 0 0.71 0.3 t0.29 0.7 l0 9 l-2.58 0 l0 -7.5 l-3.08 0 q-0.4 0 -0.7 0.29 t-0.3 0.71 l0 6.5 z M105.86 20 l-2.58 0 l0 -13.74 l2.58 0 l0 6.86 l1.98 -2.74 q0.32 -0.38 0.82 -0.38 l2.56 0 l-2.36 3.12 l2.66 0 q0.42 0 0.71 0.3 t0.29 0.7 l0 5.88 l-2.58 0 l0 -4.38 l-3.08 0 q-0.4 0 -0.7 0.3 t-0.3 0.72 l0 3.36 z M114.92 11 q0 -0.42 0.29 -0.71 t0.71 -0.29 l8.1 0 q0.4 0 0.69 0.29 t0.29 0.71 l0 4.26 q0 0.4 -0.29 0.7 t-0.71 0.3 l-6.5 0 l0 1.24 l7.5 0 l0 2.5 l-9.08 0 q-0.42 0 -0.71 -0.29 t-0.29 -0.71 l0 -8 z M117.5 12.5 l0 1.26 l4.92 0 l0 -1.26 l-4.92 0 z M131.04000000000002 16.240000000000002 l2.3 -6.24 l2.74 0 l-4.82 13.08 q-0.14 0.3 -0.4 0.48 t-0.6 0.18 l-2 0 l0 -2.5 l0.9 0 l0.52 -1.42 l-3.68 -9.82 l2.7 0 z"/></g><g id="SvgjsG3115" rel="mainfill" name="symbol" feature="symbol" xmlns:name="symbol_mainfill" fill="#374c6d" transform="translate(15.000243292914497, 14.984429253472221) scale(1.9930555555555558)"><title xmlns="http://www.w3.org/2000/svg">6 -Donkey- (Solid)</title><desc xmlns="http://www.w3.org/2000/svg">Created with Sketch.</desc><g xmlns="http://www.w3.org/2000/svg" stroke="none" stroke-width="1" fill="none" fill-rule="evenodd"><g transform="translate(-729.000000, -371.000000)" fill="#374c6d"><g transform="translate(729.000000, 371.000000)"><path d="M17,32.0061 C18.683,32.0061 20,30.2491 20,28.0061 C20,25.7631 18.683,24.0061 17,24.0061 C15.317,24.0061 14,25.7631 14,28.0061 C14,30.2491 15.317,32.0061 17,32.0061"/><path d="M27,32.0061 C28.683,32.0061 30,30.2491 30,28.0061 C30,25.7631 28.683,24.0061 27,24.0061 C25.317,24.0061 24,25.7631 24,28.0061 C24,30.2491 25.317,32.0061 27,32.0061"/><path d="M18,46.0061 C18,44.9031 17.103,44.0061 16,44.0061 C14.897,44.0061 14,44.9031 14,46.0061 C14,47.1091 14.897,48.0061 16,48.0061 C17.103,48.0061 18,47.1091 18,46.0061"/><path d="M28,44.0061 C26.897,44.0061 26,44.9031 26,46.0061 C26,47.1091 26.897,48.0061 28,48.0061 C29.103,48.0061 30,47.1091 30,46.0061 C30,44.9031 29.103,44.0061 28,44.0061"/><path d="M28,50.0061 C25.794,50.0061 24,48.2121 24,46.0061 C24,43.8001 25.794,42.0061 28,42.0061 C30.206,42.0061 32,43.8001 32,46.0061 C32,48.2121 30.206,50.0061 28,50.0061 L28,50.0061 Z M29.506,53.8691 C26.786,55.4641 24.216,56.0001 21.99,56.0011 C18.101,56.0011 15.262,54.3621 14.503,53.8741 L14.503,53.8741 C14.487,53.8651 14.472,53.8561 14.457,53.8451 C13.993,53.5461 13.86,52.9261 14.16,52.4631 C14.46,52.0001 15.123,51.8931 15.585,52.1921 C16.605,52.8491 22.028,55.9371 28.494,52.1431 C28.972,51.8621 29.584,52.0241 29.862,52.5001 C30.142,52.9771 29.982,53.5891 29.506,53.8691 L29.506,53.8691 Z M12,46.0061 C12,43.8001 13.794,42.0061 16,42.0061 C18.206,42.0061 20,43.8001 20,46.0061 C20,48.2121 18.206,50.0061 16,50.0061 C13.794,50.0061 12,48.2121 12,46.0061 L12,46.0061 Z M10.14,39.3921 C9.935,38.6321 9.876,37.8391 9.972,37.0491 L11.554,23.9971 L19.316,18.6861 L20.02,22.2021 C20.083,22.5211 20.298,22.7891 20.596,22.9211 C20.892,23.0511 21.235,23.0311 21.515,22.8631 L25,20.7721 L25,22.0061 C25,22.3941 25.225,22.7471 25.576,22.9121 C25.926,23.0751 26.342,23.0231 26.641,22.7741 L31.291,18.8991 C31.752,19.8621 32.051,20.8811 32.191,21.9381 C32.196,21.9771 32.205,22.0151 32.21,22.0541 L32.244,22.3341 L32.255,22.4241 L34.028,37.0491 C34.124,37.8391 34.065,38.6311 33.86,39.3921 C33.957,39.0331 30.62,37.6531 30.259,37.5131 C28.937,36.9991 27.561,36.6251 26.164,36.3761 C20.782,35.4161 14.712,36.2571 10.14,39.3921 L10.14,39.3921 Z M8.687,17.0011 C4.775,8.7711 8.764,3.5571 10.147,2.0981 C10.203,2.0381 10.28,2.0061 10.351,2.0061 C10.392,2.0061 10.43,2.0171 10.46,2.0391 C11.194,2.5661 12.628,4.2901 14.229,9.9231 C14.213,9.9261 14.205,9.9281 14.19,9.9321 C14.106,9.9511 14.044,9.9651 13.983,9.9801 C13.951,9.9881 13.916,9.9961 13.891,10.0021 C13.817,10.0201 13.767,10.0331 13.747,10.0381 C13.514,10.0991 13.311,10.2421 13.175,10.4421 L8.687,17.0011 Z M33.583,2.0381 C33.668,1.9781 33.808,2.0041 33.896,2.0981 L33.896,2.0971 C39.646,8.1641 36.109,15.9771 33.768,19.7691 C33.747,19.7011 33.714,19.6361 33.692,19.5691 C33.577,19.2081 33.441,18.8541 33.292,18.5041 C33.246,18.3971 33.207,18.2881 33.158,18.1821 C33.057,17.9621 32.941,17.7481 32.826,17.5331 C32.928,17.3741 33,17.1991 33,17.0061 C33,13.7411 30.921,10.5841 30.832,10.4511 C30.702,10.2561 30.507,10.1121 30.281,10.0471 C30.127,10.0011 29.971,9.9681 29.815,9.9271 C31.415,4.2961 32.849,2.5661 33.583,2.0381 L33.583,2.0381 Z M35.499,40.7411 C35.985,39.4891 36.176,38.1481 36.015,36.8091 L34.288,22.5731 C43.365,10.3091 36.774,2.2281 35.347,0.7211 C34.571,-0.0969 33.311,-0.2279 32.417,0.4141 C30.853,1.5371 29.964,3.5241 29.269,5.2521 C29.011,5.8941 28.776,6.5451 28.558,7.2011 C28.311,7.9421 28.16,8.7611 27.854,9.4751 C27.091,9.2561 26.207,9.2321 25.418,9.1621 C24.576,9.0871 23.731,9.0431 22.887,9.0291 C21.197,9.0011 19.506,9.0961 17.829,9.3121 C17.377,9.3711 16.926,9.4381 16.476,9.5141 C16.067,9.5831 16.089,9.1791 16,8.8791 C15.887,8.4921 15.77,8.1061 15.646,7.7221 C15.424,7.0251 15.185,6.3331 14.922,5.6491 C14.498,4.5501 14.018,3.4621 13.398,2.4571 C12.927,1.6911 12.363,0.9431 11.626,0.4141 C10.732,-0.2279 9.474,-0.0969 8.696,0.7211 C7.025,2.4841 2.085,8.9351 7.401,18.8801 L0.175,29.4421 C-0.097,29.8391 -0.048,30.3731 0.293,30.7131 C0.486,30.9061 0.742,31.0061 1,31.0061 C1.196,31.0061 1.394,30.9481 1.564,30.8311 L9.356,25.5001 L7.985,36.8101 C7.824,38.1481 8.015,39.4891 8.501,40.7411 C6.314,42.7601 5,45.2741 5,48.0061 C5,54.6231 12.626,60.0061 22,60.0061 C31.374,60.0061 39,54.6231 39,48.0061 C39,45.2741 37.686,42.7601 35.499,40.7411 L35.499,40.7411 Z"/></g></g></g></g>
			</g>
		</svg>
	