<?xml version="1.0" encoding="UTF-8"?>
<svg width="678px" height="493px" viewBox="0 0 678 493" version="1.1" xmlns="http://www.w3.org/2000/svg" xmlns:xlink="http://www.w3.org/1999/xlink">
    <!-- Generator: Sketch 48.2 (47327) - http://www.bohemiancoding.com/sketch -->
    <title>fitnessbg</title>
    <desc>Created with Sketch.</desc>
    <defs></defs>
    <g id="Page-1" stroke="none" stroke-width="1" fill="none" fill-rule="evenodd">
        <g id="noun_254478_cc" transform="translate(89.000000, 310.000000)" fill="#000000" fill-opacity="0.1" fill-rule="nonzero">
            <g id="Group">
                <circle id="Oval" cx="25.0007143" cy="2.61171429" r="2.442"></circle>
                <path d="M30,8.89628571 C29.9995714,8.79042857 29.9781429,8.68285714 29.934,8.58 C29.9074286,8.51785714 29.8718571,8.46257143 29.8324286,8.41071429 C29.8204286,8.39485714 29.8075714,8.38114286 29.7947143,8.36657143 C29.763,8.33057143 29.7291429,8.29842857 29.6927143,8.26885714 C29.6785714,8.25771429 29.6652857,8.24571429 29.6502857,8.23542857 C29.5984286,8.199 29.5435714,8.16728571 29.4848571,8.14414286 C29.4827143,8.14328571 29.481,8.14328571 29.4788571,8.14242857 C29.4227143,8.12057143 29.3644286,8.10685714 29.3048571,8.09785714 C29.2967143,8.09657143 29.289,8.09271429 29.2808571,8.09185714 C29.2684286,8.09057143 29.2555714,8.09314286 29.2431429,8.09228571 C29.1994286,8.08928571 29.1557143,8.08971429 29.1111429,8.094 C29.0905714,8.09571429 29.0704286,8.097 29.0502857,8.10042857 C28.9877143,8.11114286 28.9251429,8.127 28.8642857,8.15357143 L22.932,10.4537143 L21.0745714,4.07871429 C21.0681429,4.05942857 21.0574286,4.04314286 21.0501429,4.02385714 C21.0321429,3.97585714 21.0107143,3.93 20.9875714,3.88414286 C20.9674286,3.84471429 20.9472857,3.80657143 20.9241429,3.76971429 C20.8988571,3.72942857 20.8705714,3.69171429 20.8414286,3.654 C20.8354286,3.64628571 20.8307143,3.63771429 20.8247143,3.63042857 C20.802,3.60257143 20.7792857,3.576 20.7548571,3.55028571 C20.7235714,3.51685714 20.6892857,3.48642857 20.655,3.45642857 C20.6207143,3.42642857 20.586,3.39685714 20.5491429,3.37028571 C20.5118571,3.34371429 20.4728571,3.32057143 20.433,3.29742857 C20.3922857,3.27385714 20.352,3.25157143 20.3091429,3.23228571 C20.2692857,3.21428571 20.2281429,3.19928571 20.1861429,3.18471429 C20.1381429,3.168 20.0897143,3.15342857 20.04,3.14185714 C20.0198571,3.13714286 20.0022857,3.12857143 19.9817143,3.12471429 L12.258,1.98257143 C12.2532857,1.98171429 12.2485714,1.98257143 12.2434286,1.98171429 C12.1585714,1.96714286 12.0728571,1.962 11.9867143,1.96671429 C11.9627143,1.968 11.94,1.97314286 11.916,1.97614286 C11.8555714,1.983 11.7955714,1.99414286 11.736,2.01128571 C11.7227143,2.01514286 11.7081429,2.01514286 11.6944286,2.01942857 C11.679,2.02457143 11.6661429,2.03485714 11.6511429,2.04042857 C11.5907143,2.06314286 11.5324286,2.09185714 11.4754286,2.12571429 C11.4522857,2.13942857 11.4287143,2.151 11.4064286,2.16642857 C11.397,2.17285714 11.3867143,2.17671429 11.3777143,2.18314286 C11.3125714,2.23071429 11.2547143,2.28428571 11.2028571,2.34214286 C11.1964286,2.34942857 11.1917143,2.358 11.1857143,2.36528571 C11.1792857,2.37257143 11.1745714,2.38114286 11.1681429,2.38885714 L5.78614286,7.51242857 C5.78185714,7.51585714 5.77671429,7.51671429 5.77242857,7.52014286 C5.51742857,7.74342857 5.43514286,8.08885714 5.535,8.391 C5.568,8.49171429 5.62114286,8.58728571 5.69485714,8.67214286 C5.76085714,8.748 5.84014286,8.80242857 5.92371429,8.84742857 C5.94471429,8.859 5.96528571,8.86885714 5.98714286,8.87828571 C6.07028571,8.91385714 6.15642857,8.94 6.24557143,8.94685714 C6.24857143,8.94685714 6.25157143,8.94857143 6.255,8.94857143 C6.32528571,8.95328571 6.396,8.94942857 6.46542857,8.93614286 C6.48771429,8.93142857 6.50871429,8.92028571 6.53057143,8.91385714 C6.55157143,8.90785714 6.57128571,8.901 6.59228571,8.89285714 C6.68142857,8.859 6.768,8.81528571 6.84385714,8.74885714 L12.2987143,4.32428571 L15.6852857,5.08071429 L10.0165714,11.4492857 C9.95914286,11.5135714 9.918,11.586 9.86785714,11.6545714 C9.651,11.8791429 9.483,12.1564286 9.40285714,12.4812857 L8.088,19.254 L0.436285714,24.9368571 C0.380142857,24.9745714 0.329142857,25.0165714 0.283714286,25.0628571 C-0.0368571429,25.3851429 -0.0981428571,25.8994286 0.163714286,26.2928571 C0.203571429,26.3528571 0.249857143,26.406 0.299571429,26.454 C0.314142857,26.4681429 0.330857143,26.4784286 0.345857143,26.4917143 C0.382714286,26.523 0.419571429,26.553 0.459857143,26.5778571 C0.480857143,26.5911429 0.503142857,26.601 0.525,26.6121429 C0.562714286,26.6318571 0.600857143,26.6507143 0.640714286,26.6648571 C0.664285714,26.6734286 0.687857143,26.6798571 0.711857143,26.6862857 C0.753428571,26.6982857 0.795,26.7077143 0.837857143,26.7137143 C0.848571429,26.715 0.858857143,26.7192857 0.869571429,26.7205714 C0.876857143,26.7214286 0.884571429,26.7184286 0.891857143,26.7192857 C0.991285714,26.7278571 1.09114286,26.7231429 1.18971429,26.7012857 C1.20042857,26.6991429 1.21028571,26.6948571 1.221,26.6922857 C1.32385714,26.6657143 1.42457143,26.6258571 1.51757143,26.5637143 L10.2107143,21.3827143 C10.5612857,21.15 10.7794286,20.7942857 10.8497143,20.4107143 L12.2164286,15.8404286 C12.3591429,15.8284286 12.5001429,15.8022857 12.6394286,15.7671429 L16.0298571,17.862 L12.351,25.8295714 C12.3287143,25.872 12.3141429,25.9161429 12.2987143,25.9598571 C12.1384286,26.4098571 12.3252857,26.9207143 12.7607143,27.1504286 C12.8245714,27.1842857 12.891,27.2087143 12.9578571,27.2271429 C12.9762857,27.2322857 12.9947143,27.2335714 13.0131429,27.2374286 C13.0615714,27.2477143 13.11,27.2562857 13.1584286,27.2592857 C13.182,27.2605714 13.2051429,27.2588571 13.2287143,27.2584286 C13.2724286,27.2575714 13.3161429,27.2558571 13.359,27.2494286 C13.383,27.246 13.4057143,27.24 13.4292857,27.2344286 C13.4721429,27.2245714 13.5141429,27.213 13.5552857,27.1975714 C13.5651429,27.1937143 13.5758571,27.1928571 13.5857143,27.1885714 C13.5925714,27.1855714 13.5977143,27.1795714 13.6045714,27.177 C13.6958571,27.1371429 13.7811429,27.0852857 13.857,27.0188571 C13.8655714,27.0111429 13.8728571,27.0021429 13.8814286,26.9944286 C13.9585714,26.922 14.0275714,26.8388571 14.0794286,26.7402857 L19.23,18.0291429 C19.5244286,17.4707143 19.4262857,16.8128571 19.0371429,16.3624286 C19.0221429,16.3448571 19.0041429,16.3302857 18.9882857,16.3131429 C18.945,16.2677143 18.9038571,16.2205714 18.8545714,16.1802857 C18.8485714,16.1751429 18.8408571,16.1717143 18.8344286,16.167 C18.8155714,16.152 18.7941429,16.1404286 18.7744286,16.1262857 C18.7667143,16.1207143 18.762,16.113 18.7542857,16.1078571 L15.2995714,13.4687143 L19.6945714,8.532 L21.0942857,12.2905714 C21.0951429,12.2935714 21.0972857,12.2961429 21.0985714,12.2991429 C21.1264286,12.381 21.1637143,12.456 21.207,12.5267143 C21.2232857,12.5532857 21.2425714,12.5768571 21.2605714,12.6017143 C21.2931429,12.6462857 21.3278571,12.6887143 21.366,12.7277143 C21.3775714,12.7397143 21.3861429,12.7551429 21.3985714,12.7667143 C21.4092857,12.7765714 21.4234286,12.7825714 21.4345714,12.792 C21.4894286,12.8391429 21.5481429,12.8807143 21.6102857,12.9167143 C21.6248571,12.9252857 21.6381429,12.936 21.6531429,12.9437143 C21.7315714,12.9844286 21.8151429,13.0144286 21.9012857,13.0358571 C21.9248571,13.0418571 21.9484286,13.0444286 21.9724286,13.0487143 C22.0392857,13.0611429 22.1065714,13.0671429 22.1755714,13.0671429 C22.2034286,13.0671429 22.2304286,13.0675714 22.2582857,13.0654286 C22.35,13.0585714 22.4421429,13.0444286 22.5338571,13.014 C22.6302857,12.9822857 22.7164286,12.9351429 22.7974286,12.8824286 L29.4801429,9.66171429 C29.4887143,9.65828571 29.4977143,9.657 29.5067143,9.65314286 C29.8178571,9.51857143 30.0021429,9.21471429 30,8.89628571 Z" id="Shape"></path>
            </g>
        </g>
        <g id="noun_254478_cc-copy" transform="translate(325.041927, 60.263519) rotate(-52.000000) translate(-325.041927, -60.263519) translate(310.041927, 46.549233)" fill="#000000" fill-opacity="0.1" fill-rule="nonzero">
            <g id="Group">
                <circle id="Oval" cx="25.0007143" cy="2.61171429" r="2.442"></circle>
                <path d="M30,8.89628571 C29.9995714,8.79042857 29.9781429,8.68285714 29.934,8.58 C29.9074286,8.51785714 29.8718571,8.46257143 29.8324286,8.41071429 C29.8204286,8.39485714 29.8075714,8.38114286 29.7947143,8.36657143 C29.763,8.33057143 29.7291429,8.29842857 29.6927143,8.26885714 C29.6785714,8.25771429 29.6652857,8.24571429 29.6502857,8.23542857 C29.5984286,8.199 29.5435714,8.16728571 29.4848571,8.14414286 C29.4827143,8.14328571 29.481,8.14328571 29.4788571,8.14242857 C29.4227143,8.12057143 29.3644286,8.10685714 29.3048571,8.09785714 C29.2967143,8.09657143 29.289,8.09271429 29.2808571,8.09185714 C29.2684286,8.09057143 29.2555714,8.09314286 29.2431429,8.09228571 C29.1994286,8.08928571 29.1557143,8.08971429 29.1111429,8.094 C29.0905714,8.09571429 29.0704286,8.097 29.0502857,8.10042857 C28.9877143,8.11114286 28.9251429,8.127 28.8642857,8.15357143 L22.932,10.4537143 L21.0745714,4.07871429 C21.0681429,4.05942857 21.0574286,4.04314286 21.0501429,4.02385714 C21.0321429,3.97585714 21.0107143,3.93 20.9875714,3.88414286 C20.9674286,3.84471429 20.9472857,3.80657143 20.9241429,3.76971429 C20.8988571,3.72942857 20.8705714,3.69171429 20.8414286,3.654 C20.8354286,3.64628571 20.8307143,3.63771429 20.8247143,3.63042857 C20.802,3.60257143 20.7792857,3.576 20.7548571,3.55028571 C20.7235714,3.51685714 20.6892857,3.48642857 20.655,3.45642857 C20.6207143,3.42642857 20.586,3.39685714 20.5491429,3.37028571 C20.5118571,3.34371429 20.4728571,3.32057143 20.433,3.29742857 C20.3922857,3.27385714 20.352,3.25157143 20.3091429,3.23228571 C20.2692857,3.21428571 20.2281429,3.19928571 20.1861429,3.18471429 C20.1381429,3.168 20.0897143,3.15342857 20.04,3.14185714 C20.0198571,3.13714286 20.0022857,3.12857143 19.9817143,3.12471429 L12.258,1.98257143 C12.2532857,1.98171429 12.2485714,1.98257143 12.2434286,1.98171429 C12.1585714,1.96714286 12.0728571,1.962 11.9867143,1.96671429 C11.9627143,1.968 11.94,1.97314286 11.916,1.97614286 C11.8555714,1.983 11.7955714,1.99414286 11.736,2.01128571 C11.7227143,2.01514286 11.7081429,2.01514286 11.6944286,2.01942857 C11.679,2.02457143 11.6661429,2.03485714 11.6511429,2.04042857 C11.5907143,2.06314286 11.5324286,2.09185714 11.4754286,2.12571429 C11.4522857,2.13942857 11.4287143,2.151 11.4064286,2.16642857 C11.397,2.17285714 11.3867143,2.17671429 11.3777143,2.18314286 C11.3125714,2.23071429 11.2547143,2.28428571 11.2028571,2.34214286 C11.1964286,2.34942857 11.1917143,2.358 11.1857143,2.36528571 C11.1792857,2.37257143 11.1745714,2.38114286 11.1681429,2.38885714 L5.78614286,7.51242857 C5.78185714,7.51585714 5.77671429,7.51671429 5.77242857,7.52014286 C5.51742857,7.74342857 5.43514286,8.08885714 5.535,8.391 C5.568,8.49171429 5.62114286,8.58728571 5.69485714,8.67214286 C5.76085714,8.748 5.84014286,8.80242857 5.92371429,8.84742857 C5.94471429,8.859 5.96528571,8.86885714 5.98714286,8.87828571 C6.07028571,8.91385714 6.15642857,8.94 6.24557143,8.94685714 C6.24857143,8.94685714 6.25157143,8.94857143 6.255,8.94857143 C6.32528571,8.95328571 6.396,8.94942857 6.46542857,8.93614286 C6.48771429,8.93142857 6.50871429,8.92028571 6.53057143,8.91385714 C6.55157143,8.90785714 6.57128571,8.901 6.59228571,8.89285714 C6.68142857,8.859 6.768,8.81528571 6.84385714,8.74885714 L12.2987143,4.32428571 L15.6852857,5.08071429 L10.0165714,11.4492857 C9.95914286,11.5135714 9.918,11.586 9.86785714,11.6545714 C9.651,11.8791429 9.483,12.1564286 9.40285714,12.4812857 L8.088,19.254 L0.436285714,24.9368571 C0.380142857,24.9745714 0.329142857,25.0165714 0.283714286,25.0628571 C-0.0368571429,25.3851429 -0.0981428571,25.8994286 0.163714286,26.2928571 C0.203571429,26.3528571 0.249857143,26.406 0.299571429,26.454 C0.314142857,26.4681429 0.330857143,26.4784286 0.345857143,26.4917143 C0.382714286,26.523 0.419571429,26.553 0.459857143,26.5778571 C0.480857143,26.5911429 0.503142857,26.601 0.525,26.6121429 C0.562714286,26.6318571 0.600857143,26.6507143 0.640714286,26.6648571 C0.664285714,26.6734286 0.687857143,26.6798571 0.711857143,26.6862857 C0.753428571,26.6982857 0.795,26.7077143 0.837857143,26.7137143 C0.848571429,26.715 0.858857143,26.7192857 0.869571429,26.7205714 C0.876857143,26.7214286 0.884571429,26.7184286 0.891857143,26.7192857 C0.991285714,26.7278571 1.09114286,26.7231429 1.18971429,26.7012857 C1.20042857,26.6991429 1.21028571,26.6948571 1.221,26.6922857 C1.32385714,26.6657143 1.42457143,26.6258571 1.51757143,26.5637143 L10.2107143,21.3827143 C10.5612857,21.15 10.7794286,20.7942857 10.8497143,20.4107143 L12.2164286,15.8404286 C12.3591429,15.8284286 12.5001429,15.8022857 12.6394286,15.7671429 L16.0298571,17.862 L12.351,25.8295714 C12.3287143,25.872 12.3141429,25.9161429 12.2987143,25.9598571 C12.1384286,26.4098571 12.3252857,26.9207143 12.7607143,27.1504286 C12.8245714,27.1842857 12.891,27.2087143 12.9578571,27.2271429 C12.9762857,27.2322857 12.9947143,27.2335714 13.0131429,27.2374286 C13.0615714,27.2477143 13.11,27.2562857 13.1584286,27.2592857 C13.182,27.2605714 13.2051429,27.2588571 13.2287143,27.2584286 C13.2724286,27.2575714 13.3161429,27.2558571 13.359,27.2494286 C13.383,27.246 13.4057143,27.24 13.4292857,27.2344286 C13.4721429,27.2245714 13.5141429,27.213 13.5552857,27.1975714 C13.5651429,27.1937143 13.5758571,27.1928571 13.5857143,27.1885714 C13.5925714,27.1855714 13.5977143,27.1795714 13.6045714,27.177 C13.6958571,27.1371429 13.7811429,27.0852857 13.857,27.0188571 C13.8655714,27.0111429 13.8728571,27.0021429 13.8814286,26.9944286 C13.9585714,26.922 14.0275714,26.8388571 14.0794286,26.7402857 L19.23,18.0291429 C19.5244286,17.4707143 19.4262857,16.8128571 19.0371429,16.3624286 C19.0221429,16.3448571 19.0041429,16.3302857 18.9882857,16.3131429 C18.945,16.2677143 18.9038571,16.2205714 18.8545714,16.1802857 C18.8485714,16.1751429 18.8408571,16.1717143 18.8344286,16.167 C18.8155714,16.152 18.7941429,16.1404286 18.7744286,16.1262857 C18.7667143,16.1207143 18.762,16.113 18.7542857,16.1078571 L15.2995714,13.4687143 L19.6945714,8.532 L21.0942857,12.2905714 C21.0951429,12.2935714 21.0972857,12.2961429 21.0985714,12.2991429 C21.1264286,12.381 21.1637143,12.456 21.207,12.5267143 C21.2232857,12.5532857 21.2425714,12.5768571 21.2605714,12.6017143 C21.2931429,12.6462857 21.3278571,12.6887143 21.366,12.7277143 C21.3775714,12.7397143 21.3861429,12.7551429 21.3985714,12.7667143 C21.4092857,12.7765714 21.4234286,12.7825714 21.4345714,12.792 C21.4894286,12.8391429 21.5481429,12.8807143 21.6102857,12.9167143 C21.6248571,12.9252857 21.6381429,12.936 21.6531429,12.9437143 C21.7315714,12.9844286 21.8151429,13.0144286 21.9012857,13.0358571 C21.9248571,13.0418571 21.9484286,13.0444286 21.9724286,13.0487143 C22.0392857,13.0611429 22.1065714,13.0671429 22.1755714,13.0671429 C22.2034286,13.0671429 22.2304286,13.0675714 22.2582857,13.0654286 C22.35,13.0585714 22.4421429,13.0444286 22.5338571,13.014 C22.6302857,12.9822857 22.7164286,12.9351429 22.7974286,12.8824286 L29.4801429,9.66171429 C29.4887143,9.65828571 29.4977143,9.657 29.5067143,9.65314286 C29.8178571,9.51857143 30.0021429,9.21471429 30,8.89628571 Z" id="Shape"></path>
            </g>
        </g>
        <g id="noun_1077735_cc" transform="translate(361.832216, 198.832216) rotate(-315.000000) translate(-361.832216, -198.832216) translate(346.832216, 190.027868)" fill="#000000" fill-opacity="0.1" fill-rule="nonzero">
            <path d="M25.4347826,4.69565217 C24.3913043,4.69565217 23.4130435,5.05434783 22.6630435,5.67391304 L20.7065217,2.44565217 L20.7065217,0.619565217 C20.7065217,0.358695652 20.4782609,0.130434783 20.2173913,0.130434783 L18.2608696,0.130434783 C18,0.130434783 17.7717391,0.358695652 17.7717391,0.619565217 L17.7717391,4.5326087 C17.7717391,4.79347826 18,5.02173913 18.2608696,5.02173913 L20.2173913,5.02173913 C20.4782609,5.02173913 20.7065217,4.79347826 20.7065217,4.5326087 L20.7065217,4.33695652 L21.9456522,6.42391304 C21.423913,7.10869565 21.0978261,7.92391304 21.0326087,8.83695652 L17.4456522,11.4130435 L9.16304348,10.6630435 L9.29347826,9.19565217 C9.32608696,8.93478261 9.13043478,8.67391304 8.83695652,8.67391304 L2.34782609,8.11956522 C2.2173913,8.11956522 2.08695652,8.15217391 1.98913043,8.2173913 C1.89130435,8.31521739 1.82608696,8.41304348 1.82608696,8.54347826 L1.69565217,9.97826087 L0.652173913,9.88043478 C0.52173913,9.88043478 0.391304348,9.91304348 0.293478261,10.0108696 C0.195652174,10.1086957 0.130434783,10.2391304 0.130434783,10.3695652 L0.130434783,12.9782609 C0.130434783,13.2391304 0.326086957,13.4347826 0.586956522,13.4673913 L2.73913043,13.6630435 L2.73913043,17.4456522 L3.7173913,17.4456522 L3.7173913,13.7934783 L17.5434783,15.0326087 C17.5434783,15.0326087 17.576087,15.0326087 17.576087,15.0326087 C17.673913,15.0326087 17.7717391,15 17.8369565,14.9347826 L22.173913,12.0652174 C22.8913043,12.8478261 23.8369565,13.3695652 24.9456522,13.4673913 L24.9456522,17.4456522 L25.923913,17.4456522 L25.923913,13.4673913 C28.1086957,13.2391304 29.8369565,11.3478261 29.8369565,9.09782609 C29.8369565,6.68478261 27.8478261,4.69565217 25.4347826,4.69565217 Z M19.7282609,4.04347826 L18.75,4.04347826 L18.75,1.10869565 L19.7282609,1.10869565 L19.7282609,4.04347826 Z M2.80434783,9.13043478 L8.31521739,9.61956522 L8.2173913,10.5978261 L2.70652174,10.1086957 L2.80434783,9.13043478 Z M17.1195652,13.9891304 L1.14130435,12.5543478 L1.14130435,10.923913 L2.02173913,10.9891304 C2.05434783,10.9891304 2.08695652,11.0217391 2.11956522,11.0217391 L8.60869565,11.576087 C8.60869565,11.576087 8.64130435,11.576087 8.64130435,11.576087 C8.64130435,11.576087 8.64130435,11.576087 8.64130435,11.576087 L17.0869565,12.326087 L17.0869565,13.9891304 L17.1195652,13.9891304 Z M18.0978261,13.6304348 L18.0978261,12.1956522 L21.1304348,10.0108696 C21.2282609,10.4673913 21.3913043,10.8913043 21.6195652,11.2826087 L18.0978261,13.6304348 Z M25.4347826,12.5217391 C24.326087,12.5217391 23.3478261,12 22.6956522,11.1521739 C22.2717391,10.5652174 22.0108696,9.84782609 22.0108696,9.09782609 C22.0108696,9.06521739 22.0108696,9.06521739 22.0108696,9.0326087 C22.0434783,7.17391304 23.576087,5.67391304 25.4347826,5.67391304 C27.326087,5.67391304 28.8586957,7.20652174 28.8586957,9.09782609 C28.8586957,10.9891304 27.326087,12.5217391 25.4347826,12.5217391 Z M25.4347826,7.30434783 C24.4565217,7.30434783 23.6413043,8.11956522 23.6413043,9.09782609 C23.6413043,10.076087 24.4565217,10.8913043 25.4347826,10.8913043 C26.4130435,10.8913043 27.2282609,10.076087 27.2282609,9.09782609 C27.2282609,8.11956522 26.4130435,7.30434783 25.4347826,7.30434783 Z M25.4347826,9.91304348 C24.9782609,9.91304348 24.6195652,9.55434783 24.6195652,9.09782609 C24.6195652,8.64130435 24.9782609,8.2826087 25.4347826,8.2826087 C25.8913043,8.2826087 26.25,8.64130435 26.25,9.09782609 C26.25,9.55434783 25.8913043,9.91304348 25.4347826,9.91304348 Z" id="Shape"></path>
        </g>
        <g id="noun_1077735_cc-copy" transform="translate(213.000000, 442.000000)" fill="#000000" fill-opacity="0.2" fill-rule="nonzero">
            <path d="M25.4347826,4.69565217 C24.3913043,4.69565217 23.4130435,5.05434783 22.6630435,5.67391304 L20.7065217,2.44565217 L20.7065217,0.619565217 C20.7065217,0.358695652 20.4782609,0.130434783 20.2173913,0.130434783 L18.2608696,0.130434783 C18,0.130434783 17.7717391,0.358695652 17.7717391,0.619565217 L17.7717391,4.5326087 C17.7717391,4.79347826 18,5.02173913 18.2608696,5.02173913 L20.2173913,5.02173913 C20.4782609,5.02173913 20.7065217,4.79347826 20.7065217,4.5326087 L20.7065217,4.33695652 L21.9456522,6.42391304 C21.423913,7.10869565 21.0978261,7.92391304 21.0326087,8.83695652 L17.4456522,11.4130435 L9.16304348,10.6630435 L9.29347826,9.19565217 C9.32608696,8.93478261 9.13043478,8.67391304 8.83695652,8.67391304 L2.34782609,8.11956522 C2.2173913,8.11956522 2.08695652,8.15217391 1.98913043,8.2173913 C1.89130435,8.31521739 1.82608696,8.41304348 1.82608696,8.54347826 L1.69565217,9.97826087 L0.652173913,9.88043478 C0.52173913,9.88043478 0.391304348,9.91304348 0.293478261,10.0108696 C0.195652174,10.1086957 0.130434783,10.2391304 0.130434783,10.3695652 L0.130434783,12.9782609 C0.130434783,13.2391304 0.326086957,13.4347826 0.586956522,13.4673913 L2.73913043,13.6630435 L2.73913043,17.4456522 L3.7173913,17.4456522 L3.7173913,13.7934783 L17.5434783,15.0326087 C17.5434783,15.0326087 17.576087,15.0326087 17.576087,15.0326087 C17.673913,15.0326087 17.7717391,15 17.8369565,14.9347826 L22.173913,12.0652174 C22.8913043,12.8478261 23.8369565,13.3695652 24.9456522,13.4673913 L24.9456522,17.4456522 L25.923913,17.4456522 L25.923913,13.4673913 C28.1086957,13.2391304 29.8369565,11.3478261 29.8369565,9.09782609 C29.8369565,6.68478261 27.8478261,4.69565217 25.4347826,4.69565217 Z M19.7282609,4.04347826 L18.75,4.04347826 L18.75,1.10869565 L19.7282609,1.10869565 L19.7282609,4.04347826 Z M2.80434783,9.13043478 L8.31521739,9.61956522 L8.2173913,10.5978261 L2.70652174,10.1086957 L2.80434783,9.13043478 Z M17.1195652,13.9891304 L1.14130435,12.5543478 L1.14130435,10.923913 L2.02173913,10.9891304 C2.05434783,10.9891304 2.08695652,11.0217391 2.11956522,11.0217391 L8.60869565,11.576087 C8.60869565,11.576087 8.64130435,11.576087 8.64130435,11.576087 C8.64130435,11.576087 8.64130435,11.576087 8.64130435,11.576087 L17.0869565,12.326087 L17.0869565,13.9891304 L17.1195652,13.9891304 Z M18.0978261,13.6304348 L18.0978261,12.1956522 L21.1304348,10.0108696 C21.2282609,10.4673913 21.3913043,10.8913043 21.6195652,11.2826087 L18.0978261,13.6304348 Z M25.4347826,12.5217391 C24.326087,12.5217391 23.3478261,12 22.6956522,11.1521739 C22.2717391,10.5652174 22.0108696,9.84782609 22.0108696,9.09782609 C22.0108696,9.06521739 22.0108696,9.06521739 22.0108696,9.0326087 C22.0434783,7.17391304 23.576087,5.67391304 25.4347826,5.67391304 C27.326087,5.67391304 28.8586957,7.20652174 28.8586957,9.09782609 C28.8586957,10.9891304 27.326087,12.5217391 25.4347826,12.5217391 Z M25.4347826,7.30434783 C24.4565217,7.30434783 23.6413043,8.11956522 23.6413043,9.09782609 C23.6413043,10.076087 24.4565217,10.8913043 25.4347826,10.8913043 C26.4130435,10.8913043 27.2282609,10.076087 27.2282609,9.09782609 C27.2282609,8.11956522 26.4130435,7.30434783 25.4347826,7.30434783 Z M25.4347826,9.91304348 C24.9782609,9.91304348 24.6195652,9.55434783 24.6195652,9.09782609 C24.6195652,8.64130435 24.9782609,8.2826087 25.4347826,8.2826087 C25.8913043,8.2826087 26.25,8.64130435 26.25,9.09782609 C26.25,9.55434783 25.8913043,9.91304348 25.4347826,9.91304348 Z" id="Shape"></path>
        </g>
        <g id="yoga" transform="translate(156.000000, 80.000000)" fill="#000000" fill-opacity="0.1" fill-rule="nonzero">
            <circle id="Oval" cx="2.5638125" cy="17.0846458" r="2.5638125"></circle>
            <path d="M33.3238958,22.9678702 L28.0687708,20.3041827 C27.48475,20.0080994 26.8564583,19.8083494 26.2083333,19.7127244 L24.3797708,19.227516 L17.6746875,16.095266 C17.1048333,15.8289327 16.4875208,15.6844327 15.858875,15.6699119 C14.9777083,15.6497244 13.7133333,15.6008494 13.1608333,15.4860994 C12.2580625,15.2980369 10.350875,14.5564119 8.99547917,14.004266 L9.24020833,8.21470353 L8.69585417,0.464474363 C8.676375,0.189286863 8.43766667,-0.0179006365 8.16283333,0.00122436348 C7.90252083,0.0196410301 7.70029167,0.234974363 7.69852083,0.49564103 L7.64645833,7.6912452 L6.25245833,14.6286619 L5.63408333,19.253016 L5.63408333,25.4743077 C5.63408333,25.4842244 4.95833333,25.9439327 4.95833333,26.2605577 C4.95833333,26.7532035 5.57635417,26.5467244 6.351625,26.5467244 C7.12689583,26.5467244 7.75022917,26.7532035 7.75022917,26.2605577 C7.75022917,25.9761619 7.5341875,25.725766 7.208,25.5624952 C7.20835417,25.562141 8.0080625,19.601516 8.0080625,19.601516 C9.33583333,19.5646827 10.85025,19.5416619 11.5752292,19.7534535 C12.2152083,19.9400994 13.4912708,20.7886827 14.3132917,21.365266 C14.8378125,21.7332452 15.4728333,21.9825785 16.1025417,22.1015785 L22.98825,23.3974744 L22.98825,23.398891 L24.8795,24.3820577 C25.4316458,24.6636202 26.0022083,24.8644327 26.611375,24.9784744 L32.1303542,25.8865577 C32.4774375,25.9517244 32.8209792,25.6907035 32.9803542,25.3365369 L32.977875,25.3365369 C33.190375,24.9823702 32.9892083,24.5300994 32.5472083,24.3639952 L23.581125,21.4410577 L21.7844375,20.7684952 L23.7745,21.295141 L32.7136667,24.4245577 C33.1847083,24.6041202 33.7138333,24.3087452 33.7836042,23.7859952 C33.8292917,23.4463494 33.6298958,23.1229952 33.3238958,22.9678702 Z" id="Shape"></path>
        </g>
        <g id="barbell" transform="translate(15.000000, 18.000000)" fill="#000000" fill-opacity="0.1" fill-rule="nonzero">
            <path d="M5.37435565,6.39711432 L7.37435565,6.39711432 L7.37435565,9.81511432 C7.36435565,9.86911432 7.36435565,9.92481432 7.37435565,9.97911432 L7.37435565,11.8151143 C7.36435565,11.8691143 7.36435565,11.9248143 7.37435565,11.9791143 L7.37435565,15.3971143 L5.37435565,15.3971143 L5.37435565,13.8971143 L5.37435565,7.89711432 L5.37435565,6.39711432 Z M21.3743557,6.39711432 L23.3743557,6.39711432 L23.3743557,7.89711432 L23.3743557,13.8971143 L23.3743557,15.3971143 L21.3743557,15.3971143 L21.3743557,11.9752143 C21.3843557,11.9222143 21.3843557,11.8681143 21.3743557,11.8151143 L21.3743557,9.97521432 C21.3843557,9.92221432 21.3843557,9.86811432 21.3743557,9.81511432 L21.3743557,6.39711432 Z M2.37435565,8.39711432 L4.37435565,8.39711432 L4.37435565,13.3971143 L2.37435565,13.3971143 L2.37435565,11.9752143 C2.38435565,11.9222143 2.38435565,11.8681143 2.37435565,11.8151143 L2.37435565,9.97521432 C2.38435565,9.92221432 2.38435565,9.86811432 2.37435565,9.81511432 L2.37435565,8.39711432 Z M24.3743557,8.39711432 L26.3743557,8.39711432 L26.3743557,13.3971143 L24.3743557,13.3971143 L24.3743557,8.39711432 Z M0.374355653,10.3971143 L1.37435565,10.3971143 L1.37435565,11.3971143 L0.374355653,11.3971143 L0.374355653,10.3971143 Z M8.37435565,10.3971143 L14.3743557,10.3971143 L20.3743557,10.3971143 L20.3743557,11.3971143 L14.3743557,11.3971143 L8.37435565,11.3971143 L8.37435565,10.3971143 Z M27.3743557,10.3971143 L28.3743557,10.3971143 L28.3743557,10.8971143 L28.3743557,11.3971143 L27.3743557,11.3971143 L27.3743557,10.3971143 Z" id="Shape" transform="translate(14.374356, 10.897114) rotate(-30.000000) translate(-14.374356, -10.897114) "></path>
        </g>
        <g id="noun_30149_cc" transform="translate(535.970286, 199.114026) rotate(-18.000000) translate(-535.970286, -199.114026) translate(520.970286, 183.890145)" fill="#000000" fill-opacity="0.1" fill-rule="nonzero">
            <path d="M11.8454597,10.7948713 L16.4109067,10.7948713 C16.7270646,10.7948713 16.9815873,11.0493958 16.9815873,11.3655542 L16.9815873,20.211111 C16.9815873,20.527269 16.7270646,20.781793 16.4109067,20.781793 L11.8454597,20.781793 C11.529304,20.781793 11.2747813,20.527269 11.2747813,20.211111 L11.2747813,11.3655542 C11.2747813,11.0493958 11.529304,10.7948713 11.8454597,10.7948713 Z" id="Shape"></path>
            <path d="M16.2682379,8.36948731 C16.2682379,9.55140493 15.3101046,10.5095409 14.1281852,10.5095409 C12.9462654,10.5095409 11.9881321,9.55140493 11.9881321,8.36948731 C11.9881321,7.18756836 12.9462654,6.22943507 14.1281852,6.22943507 C15.3101046,6.22943507 16.2682379,7.18756836 16.2682379,8.36948731 Z" id="Shape"></path>
            <path d="M11.8781203,19.8819143 C11.6537897,19.805104 11.4061025,19.9213442 11.3292918,20.1456734 L10.1338079,23.6371867 L10.1317034,23.6432987 C9.92951642,24.2446822 10.243539,24.8929043 10.8385572,25.096637 C11.4335758,25.3003693 12.0851373,24.9827606 12.2939915,24.3836588 C12.2946184,24.3815991 12.2954243,24.379629 12.296096,24.3775469 L13.4915803,20.8860331 C13.5683901,20.6616999 13.4500594,20.4201394 13.225723,20.3433269 L11.8781203,19.8819125 L11.8781203,19.8819143 Z" id="Shape"></path>
            <path d="M11.1511281,23.3030387 C10.5200118,23.3030387 10.0116036,23.8180151 10.0116036,24.4555133 L10.0116036,29.965376 C10.0116036,30.2024955 10.2082813,30.3926973 10.4454,30.3926973 L11.8698063,30.3926973 C12.1069249,30.3926973 12.2971281,30.2024955 12.2971281,29.965376 L12.2971281,24.4555133 C12.2971281,23.8180151 11.7822448,23.3030387 11.1511281,23.3030387 Z" id="Shape"></path>
            <path d="M8.64052478,4.19372104 C8.40812776,4.24079194 8.25943612,4.46492194 8.30648194,4.69732701 L9.05539433,8.39696239 L9.05933463,8.41598328 C9.1454991,8.79088299 9.51554821,9.03046209 9.89482746,8.95368358 C10.2741219,8.87696866 10.5218301,8.51227075 10.4554249,8.13337254 C10.4543951,8.12711731 10.4529175,8.12054418 10.4514846,8.11435164 L9.70257493,4.41471313 C9.65550358,4.18231701 9.4313691,4.03362537 9.19896269,4.08067119 L8.64052254,4.19367896 L8.64052478,4.19372104 Z" id="Shape"></path>
            <path d="M9.3851297,7.72055284 C9.06125194,7.92772478 8.96144821,8.35399209 9.15508881,8.68248806 C9.15929776,8.6902791 9.1642903,8.69682537 9.16907239,8.70428507 L11.1510873,11.8020367 C11.2789115,12.0017521 11.5416072,12.0594761 11.7413409,11.9316855 L12.2212961,11.6246481 C12.4210119,11.4968239 12.4787342,11.2341264 12.3509454,11.0343967 L10.36893,7.93664418 C10.3642554,7.92912179 10.3599345,7.9221009 10.3549464,7.91484716 C10.1378521,7.60135388 9.70901149,7.5133697 9.3851503,7.72058328 L9.3851297,7.72055284 Z" id="Shape"></path>
            <path d="M16.5163666,19.8819143 C16.7406976,19.805104 16.9883848,19.9213442 17.0651951,20.1456734 L18.260679,23.6371867 L18.2627834,23.6432987 C18.4649709,24.2446822 18.1509488,24.8929043 17.5559297,25.096637 C16.9609115,25.3003693 16.30935,24.9827606 16.1004958,24.3836588 C16.099869,24.3815991 16.099063,24.379629 16.0983913,24.3775469 L14.9029066,20.8860331 C14.8260967,20.6616999 14.9444275,20.4201394 15.1687648,20.3433269 L16.5163666,19.8819125 L16.5163666,19.8819143 Z" id="Shape"></path>
            <path d="M17.2433588,23.3030387 C17.8744755,23.3030387 18.3828837,23.8180151 18.3828837,24.4555133 L18.3828837,29.965376 C18.3828837,30.2024955 18.186206,30.3926973 17.9490878,30.3926973 L16.524681,30.3926973 C16.2875628,30.3926973 16.0973593,30.2024955 16.0973593,29.965376 L16.0973593,24.4555133 C16.0973593,23.8180151 16.6122425,23.3030387 17.2433588,23.3030387 Z" id="Shape"></path>
            <path d="M19.7256922,4.19372104 C19.9580888,4.24079194 20.10678,4.46492194 20.0597342,4.69732701 L19.3108218,8.39696239 L19.3068815,8.41598328 C19.2207161,8.79088299 18.850667,9.03046209 18.4713878,8.95368358 C18.0920933,8.87696866 17.844386,8.51227075 17.9107912,8.13337254 C17.911821,8.12711731 17.9132987,8.12054418 17.9147315,8.11435164 L18.6636416,4.41471313 C18.7107125,4.18231701 18.9348466,4.03362537 19.1672539,4.08067119 L19.7256931,4.19367896 L19.7256922,4.19372104 Z" id="Shape"></path>
            <path d="M18.9810869,7.72055284 C19.3049646,7.92772478 19.4047688,8.35399209 19.2111278,8.68248806 C19.2069188,8.6902791 19.2019263,8.69682537 19.1971442,8.70428507 L17.2151288,11.8020367 C17.0873055,12.0017521 16.8246094,12.0594761 16.6248757,11.9316855 L16.1449187,11.6246507 C15.9452037,11.496827 15.8874815,11.2341296 16.0152703,11.0343999 L17.9972852,7.93664821 C18.0019599,7.92912582 18.0062807,7.92210493 18.0112688,7.91485119 C18.2283627,7.60135791 18.6572037,7.51337373 18.9810649,7.72058731 L18.9810869,7.72055284 Z" id="Shape"></path>
            <polygon id="Shape" points="0.0839552239 4.43563433 0.0839552239 5.05130597 29.7621269 5.05130597 29.7621269 4.43563433"></polygon>
            <polygon id="Shape" points="3.1776197 0.338914836 4.87752134 0.338914836 4.87752134 9.14749567 3.1776197 9.14749567"></polygon>
            <polygon id="Shape" points="1.10575612 0.338914836 2.80565776 0.338914836 2.80565776 9.14749567 1.10575612 9.14749567"></polygon>
            <polygon id="Shape" points="27.2853143 0.338914836 28.985216 0.338914836 28.985216 9.14749567 27.2853143 9.14749567"></polygon>
            <polygon id="Shape" points="25.213449 0.338914836 26.9133506 0.338914836 26.9133506 9.14749567 25.213449 9.14749567"></polygon>
        </g>
        <g id="noun_30149_cc-copy-2" transform="translate(460.948650, 442.009063) rotate(34.000000) translate(-460.948650, -442.009063) translate(445.948650, 426.785182)" fill="#000000" fill-opacity="0.1" fill-rule="nonzero">
            <path d="M11.8454597,10.7948713 L16.4109067,10.7948713 C16.7270646,10.7948713 16.9815873,11.0493958 16.9815873,11.3655542 L16.9815873,20.211111 C16.9815873,20.527269 16.7270646,20.781793 16.4109067,20.781793 L11.8454597,20.781793 C11.529304,20.781793 11.2747813,20.527269 11.2747813,20.211111 L11.2747813,11.3655542 C11.2747813,11.0493958 11.529304,10.7948713 11.8454597,10.7948713 Z" id="Shape"></path>
            <path d="M16.2682379,8.36948731 C16.2682379,9.55140493 15.3101046,10.5095409 14.1281852,10.5095409 C12.9462654,10.5095409 11.9881321,9.55140493 11.9881321,8.36948731 C11.9881321,7.18756836 12.9462654,6.22943507 14.1281852,6.22943507 C15.3101046,6.22943507 16.2682379,7.18756836 16.2682379,8.36948731 Z" id="Shape"></path>
            <path d="M11.8781203,19.8819143 C11.6537897,19.805104 11.4061025,19.9213442 11.3292918,20.1456734 L10.1338079,23.6371867 L10.1317034,23.6432987 C9.92951642,24.2446822 10.243539,24.8929043 10.8385572,25.096637 C11.4335758,25.3003693 12.0851373,24.9827606 12.2939915,24.3836588 C12.2946184,24.3815991 12.2954243,24.379629 12.296096,24.3775469 L13.4915803,20.8860331 C13.5683901,20.6616999 13.4500594,20.4201394 13.225723,20.3433269 L11.8781203,19.8819125 L11.8781203,19.8819143 Z" id="Shape"></path>
            <path d="M11.1511281,23.3030387 C10.5200118,23.3030387 10.0116036,23.8180151 10.0116036,24.4555133 L10.0116036,29.965376 C10.0116036,30.2024955 10.2082813,30.3926973 10.4454,30.3926973 L11.8698063,30.3926973 C12.1069249,30.3926973 12.2971281,30.2024955 12.2971281,29.965376 L12.2971281,24.4555133 C12.2971281,23.8180151 11.7822448,23.3030387 11.1511281,23.3030387 Z" id="Shape"></path>
            <path d="M8.64052478,4.19372104 C8.40812776,4.24079194 8.25943612,4.46492194 8.30648194,4.69732701 L9.05539433,8.39696239 L9.05933463,8.41598328 C9.1454991,8.79088299 9.51554821,9.03046209 9.89482746,8.95368358 C10.2741219,8.87696866 10.5218301,8.51227075 10.4554249,8.13337254 C10.4543951,8.12711731 10.4529175,8.12054418 10.4514846,8.11435164 L9.70257493,4.41471313 C9.65550358,4.18231701 9.4313691,4.03362537 9.19896269,4.08067119 L8.64052254,4.19367896 L8.64052478,4.19372104 Z" id="Shape"></path>
            <path d="M9.3851297,7.72055284 C9.06125194,7.92772478 8.96144821,8.35399209 9.15508881,8.68248806 C9.15929776,8.6902791 9.1642903,8.69682537 9.16907239,8.70428507 L11.1510873,11.8020367 C11.2789115,12.0017521 11.5416072,12.0594761 11.7413409,11.9316855 L12.2212961,11.6246481 C12.4210119,11.4968239 12.4787342,11.2341264 12.3509454,11.0343967 L10.36893,7.93664418 C10.3642554,7.92912179 10.3599345,7.9221009 10.3549464,7.91484716 C10.1378521,7.60135388 9.70901149,7.5133697 9.3851503,7.72058328 L9.3851297,7.72055284 Z" id="Shape"></path>
            <path d="M16.5163666,19.8819143 C16.7406976,19.805104 16.9883848,19.9213442 17.0651951,20.1456734 L18.260679,23.6371867 L18.2627834,23.6432987 C18.4649709,24.2446822 18.1509488,24.8929043 17.5559297,25.096637 C16.9609115,25.3003693 16.30935,24.9827606 16.1004958,24.3836588 C16.099869,24.3815991 16.099063,24.379629 16.0983913,24.3775469 L14.9029066,20.8860331 C14.8260967,20.6616999 14.9444275,20.4201394 15.1687648,20.3433269 L16.5163666,19.8819125 L16.5163666,19.8819143 Z" id="Shape"></path>
            <path d="M17.2433588,23.3030387 C17.8744755,23.3030387 18.3828837,23.8180151 18.3828837,24.4555133 L18.3828837,29.965376 C18.3828837,30.2024955 18.186206,30.3926973 17.9490878,30.3926973 L16.524681,30.3926973 C16.2875628,30.3926973 16.0973593,30.2024955 16.0973593,29.965376 L16.0973593,24.4555133 C16.0973593,23.8180151 16.6122425,23.3030387 17.2433588,23.3030387 Z" id="Shape"></path>
            <path d="M19.7256922,4.19372104 C19.9580888,4.24079194 20.10678,4.46492194 20.0597342,4.69732701 L19.3108218,8.39696239 L19.3068815,8.41598328 C19.2207161,8.79088299 18.850667,9.03046209 18.4713878,8.95368358 C18.0920933,8.87696866 17.844386,8.51227075 17.9107912,8.13337254 C17.911821,8.12711731 17.9132987,8.12054418 17.9147315,8.11435164 L18.6636416,4.41471313 C18.7107125,4.18231701 18.9348466,4.03362537 19.1672539,4.08067119 L19.7256931,4.19367896 L19.7256922,4.19372104 Z" id="Shape"></path>
            <path d="M18.9810869,7.72055284 C19.3049646,7.92772478 19.4047688,8.35399209 19.2111278,8.68248806 C19.2069188,8.6902791 19.2019263,8.69682537 19.1971442,8.70428507 L17.2151288,11.8020367 C17.0873055,12.0017521 16.8246094,12.0594761 16.6248757,11.9316855 L16.1449187,11.6246507 C15.9452037,11.496827 15.8874815,11.2341296 16.0152703,11.0343999 L17.9972852,7.93664821 C18.0019599,7.92912582 18.0062807,7.92210493 18.0112688,7.91485119 C18.2283627,7.60135791 18.6572037,7.51337373 18.9810649,7.72058731 L18.9810869,7.72055284 Z" id="Shape"></path>
            <polygon id="Shape" points="0.0839552239 4.43563433 0.0839552239 5.05130597 29.7621269 5.05130597 29.7621269 4.43563433"></polygon>
            <polygon id="Shape" points="3.1776197 0.338914836 4.87752134 0.338914836 4.87752134 9.14749567 3.1776197 9.14749567"></polygon>
            <polygon id="Shape" points="1.10575612 0.338914836 2.80565776 0.338914836 2.80565776 9.14749567 1.10575612 9.14749567"></polygon>
            <polygon id="Shape" points="27.2853143 0.338914836 28.985216 0.338914836 28.985216 9.14749567 27.2853143 9.14749567"></polygon>
            <polygon id="Shape" points="25.213449 0.338914836 26.9133506 0.338914836 26.9133506 9.14749567 25.213449 9.14749567"></polygon>
        </g>
    </g>
</svg>